SplineFontDB: 3.2
FontName: Reco4-Font-Icon-Library
FullName: Reco4-Font-Icon-Library
FamilyName: Reco4-Font-Icon-Library
Weight: Book
Copyright: 
Version: 1.0
ItalicAngle: 0
UnderlinePosition: -119
UnderlineWidth: 35
Ascent: 960
Descent: 64
InvalidEm: 0
sfntRevision: 0x00010000
LayerCount: 2
Layer: 0 1 "Back" 1
Layer: 1 1 "Fore" 0
XUID: [1021 626 1344782388 6129]
StyleMap: 0x0040
FSType: 0
OS2Version: 2
OS2_WeightWidthSlopeOnly: 0
OS2_UseTypoMetrics: 0
CreationTime: 1587054688
ModificationTime: 1607707576
PfmFamily: 81
TTFWeight: 400
TTFWidth: 5
LineGap: 0
VLineGap: 0
Panose: 0 0 0 0 0 0 0 0 0 0
OS2TypoAscent: 960
OS2TypoAOffset: 0
OS2TypoDescent: -64
OS2TypoDOffset: 0
OS2TypoLinegap: 0
OS2WinAscent: 960
OS2WinAOffset: 0
OS2WinDescent: 64
OS2WinDOffset: 0
HheadAscent: 960
HheadAOffset: 0
HheadDescent: -64
HheadDOffset: 0
OS2SubXSize: 650
OS2SubYSize: 700
OS2SubXOff: 47
OS2SubYOff: 140
OS2SupXSize: 650
OS2SupYSize: 700
OS2SupXOff: -164
OS2SupYOff: 480
OS2StrikeYSize: 49
OS2StrikeYPos: 258
OS2CapHeight: 960
OS2Vendor: 'Bird'
OS2CodePages: 00020001.00000000
OS2UnicodeRanges: 00000001.00000000.00000000.00000000
Lookup: 265 0 0 "'kern' Horizontal Kerning lookup 0" { } [' RQD' ('DFLT' <'dflt' > ) 'kern' ('DFLT' <'dflt' > ) ]
MarkAttachClasses: 1
DEI: 91125
ShortTable: maxp 16
  1
  0
  83
  294
  14
  0
  0
  1
  0
  0
  0
  0
  0
  0
  0
  0
EndShort
LangName: 1033 "" "" "Regular" "Reco4-Font-Icon-Library" "" "Version 1.0" "" "" "" "Bjorn Bornstedt" "Font generated by IcoMoon."
GaspTable: 1 65535 2 0
Encoding: UnicodeFull
UnicodeInterp: none
NameList: AGL For New Fonts
DisplaySize: -48
AntiAlias: 1
FitToEm: 0
WinInfo: 16 16 4
BeginPrivate: 0
EndPrivate
BeginChars: 1114113 83

StartChar: .notdef
Encoding: 1114112 -1 0
Width: 543
Flags: W
LayerCount: 2
Fore
SplineSet
51 102 m 1,0,1
 128 102 128 102 358 102 c 1,2,3
 358 34 358 34 358 -102 c 1,4,5
 256 -102 256 -102 51 -102 c 1,6,7
 51 -34 51 -34 51 102 c 1,0,1
0 -51 m 1,8,9
 102 -51 102 -51 410 -51 c 1,10,11
 410 -17 410 -17 410 51 c 1,12,13
 273 51 273 51 0 51 c 1,14,15
 0 17 0 17 0 -51 c 1,8,9
EndSplineSet
Validated: 5
EndChar

StartChar: unie600
Encoding: 58880 58880 4
Width: 1024
Flags: W
LayerCount: 2
Fore
SplineSet
512 887 m 256,0,1
 421 887 421 887 341 852 c 0,2,3
 261 818 261 818 201 758 c 0,4,5
 142 699 142 699 108 619 c 0,6,7
 73 539 73 539 73 448 c 256,8,9
 73 357 73 357 108 277 c 0,10,11
 142 197 142 197 201 137 c 0,12,13
 261 78 261 78 341 44 c 0,14,15
 421 9 421 9 512 9 c 256,16,17
 603 9 603 9 683 44 c 0,18,19
 763 78 763 78 822 137 c 0,20,21
 882 197 882 197 916 277 c 0,22,23
 951 357 951 357 951 448 c 256,24,25
 951 539 951 539 916 619 c 0,26,27
 882 699 882 699 822 758 c 0,28,29
 763 818 763 818 683 852 c 0,30,31
 603 887 603 887 512 887 c 256,0,1
724 457 m 1,32,33
 724 383 724 383 724 161 c 1,34,35
 693 161 693 161 600 161 c 1,36,37
 600 215 600 215 600 377 c 1,38,39
 558 377 558 377 431 377 c 1,40,41
 431 323 431 323 431 161 c 1,42,43
 398 161 398 161 300 161 c 1,44,45
 300 235 300 235 300 458 c 1,46,47
 271 458 271 458 182 459 c 1,48,49
 265 542 265 542 514 791 c 1,50,51
 597 708 597 708 848 460 c 1,52,53
 817 459 817 459 724 457 c 1,54,55
 724 457 724 457 724 457 c 1,32,33
EndSplineSet
Validated: 5
EndChar

StartChar: unie601
Encoding: 58881 58881 5
Width: 1024
Flags: W
LayerCount: 2
Fore
SplineSet
814 458 m 1,0,1
 814 353 814 353 814 37 c 1,2,3
 770 37 770 37 637 37 c 1,4,5
 637 114 637 114 637 344 c 1,6,7
 577 344 577 344 396 344 c 1,8,9
 396 267 396 267 396 37 c 1,10,11
 349 37 349 37 209 37 c 1,12,13
 209 142 209 142 209 459 c 1,14,15
 167 459 167 459 42 460 c 1,16,17
 160 578 160 578 515 933 c 1,18,19
 634 815 634 815 991 462 c 1,20,21
 947 461 947 461 814 458 c 1,0,1
EndSplineSet
Validated: 1
EndChar

StartChar: unie602
Encoding: 58882 58882 6
Width: 1024
Flags: W
LayerCount: 2
Fore
SplineSet
825 -23 m 1,0,1
 765 -23 765 -23 584 -23 c 1,2,3
 584 52 584 52 584 275 c 1,4,5
 550 275 550 275 448 275 c 1,6,7
 448 201 448 201 448 -23 c 1,8,9
 386 -23 386 -23 198 -23 c 1,10,11
 198 79 198 79 198 384 c 1,12,13
 145 384 145 384 -13 385 c 1,14,15
 119 522 119 522 515 933 c 1,16,17
 647 795 647 795 1041 382 c 1,18,19
 987 382 987 382 825 382 c 1,20,21
 825 281 825 281 825 -23 c 1,22,23
 825 -23 825 -23 825 -23 c 1,0,1
666 60 m 1,24,25
 685 60 685 60 743 60 c 1,26,27
 743 161 743 161 743 465 c 1,28,29
 769 465 769 465 848 464 c 1,30,31
 765 552 765 552 515 814 c 1,32,33
 431 727 431 727 180 466 c 1,34,35
 205 466 205 466 280 466 c 1,36,37
 280 364 280 364 280 60 c 1,38,39
 302 60 302 60 366 60 c 1,40,41
 366 135 366 135 366 358 c 1,42,43
 441 358 441 358 666 358 c 1,44,45
 666 284 666 284 666 60 c 1,46,47
 666 60 666 60 666 60 c 1,24,25
EndSplineSet
Validated: 5
EndChar

StartChar: unie603
Encoding: 58883 58883 7
Width: 1024
Flags: W
LayerCount: 2
Fore
SplineSet
72 728 m 257,0,1
 72 728 72 728 82 771 c 0,2,3
 93 814 93 814 155 814 c 0,4,5
 181 814 181 814 297 814 c 256,6,7
 413 814 413 814 541 814 c 0,8,9
 670 814 670 814 772 814 c 256,10,11
 874 814 874 814 874 814 c 257,12,13
 874 814 874 814 911 803 c 256,14,15
 948 792 948 792 948 728 c 0,16,17
 948 669 948 669 910 638 c 0,18,19
 873 608 873 608 873 608 c 1,20,21
 776 540 776 540 583 405 c 1,22,23
 583 405 583 405 556 389 c 0,24,25
 530 373 530 373 510 373 c 0,26,27
 489 373 489 373 460 391 c 0,28,29
 430 410 430 410 430 410 c 1,30,31
 333 478 333 478 138 615 c 1,32,33
 138 615 138 615 105 643 c 256,34,35
 72 671 72 671 72 728 c 1,36,37
 72 728 72 728 72 728 c 257,0,1
72 195 m 1,38,39
 72 295 72 295 72 593 c 1,40,41
 72 593 72 593 84 579 c 256,42,43
 96 565 96 565 127 544 c 0,44,45
 143 533 143 533 190 500 c 0,46,47
 236 468 236 468 285 433 c 0,48,49
 335 399 335 399 374 372 c 0,50,51
 412 345 412 345 412 345 c 257,52,53
 412 345 412 345 442 328 c 0,54,55
 472 310 472 310 510 310 c 0,56,57
 547 310 547 310 584 332 c 0,58,59
 621 353 621 353 621 353 c 1,60,61
 714 418 714 418 900 548 c 1,62,63
 900 548 900 548 921 565 c 0,64,65
 943 582 943 582 948 593 c 1,66,67
 948 460 948 460 948 195 c 1,68,69
 948 195 948 195 938 159 c 0,70,71
 929 123 929 123 872 123 c 0,72,73
 848 123 848 123 734 123 c 256,74,75
 620 123 620 123 492 123 c 256,76,77
 364 123 364 123 262 123 c 0,78,79
 159 123 159 123 159 123 c 257,80,81
 159 123 159 123 115 132 c 0,82,83
 72 141 72 141 72 195 c 1,84,85
 72 195 72 195 72 195 c 1,38,39
EndSplineSet
Validated: 5
EndChar

StartChar: unie604
Encoding: 58884 58884 8
Width: 1024
Flags: W
LayerCount: 2
Fore
SplineSet
448 10 m 1,0,1
 448 88 448 88 448 324 c 1,2,3
 417 324 417 324 323 324 c 1,4,5
 370 371 370 371 511 512 c 1,6,7
 558 465 558 465 699 324 c 1,8,9
 668 324 668 324 574 324 c 1,10,11
 574 245 574 245 574 10 c 1,12,13
 543 10 543 10 448 10 c 1,0,1
888 816 m 1,14,15
 700 816 700 816 134 816 c 0,16,17
 87 816 87 816 79 785 c 0,18,19
 72 754 72 754 72 754 c 1,20,21
 72 566 72 566 72 189 c 0,22,23
 72 142 72 142 103 134 c 256,24,25
 134 126 134 126 134 126 c 1,26,27
 197 126 197 126 323 126 c 1,28,29
 323 142 323 142 323 189 c 1,30,31
 276 189 276 189 134 189 c 1,32,33
 134 299 134 299 134 628 c 1,34,35
 323 628 323 628 888 628 c 1,36,37
 888 518 888 518 888 188 c 1,38,39
 841 188 841 188 699 188 c 1,40,41
 699 173 699 173 699 126 c 1,42,43
 746 126 746 126 888 126 c 0,44,45
 935 126 935 126 942 157 c 0,46,47
 950 188 950 188 950 188 c 1,48,49
 950 376 950 376 950 753 c 0,50,51
 950 800 950 800 919 808 c 256,52,53
 888 816 888 816 888 816 c 257,54,55
 888 816 888 816 888 816 c 1,14,15
166 690 m 1,56,57
 153 690 153 690 144 699 c 0,58,59
 134 709 134 709 134 722 c 256,60,61
 134 735 134 735 144 744 c 0,62,63
 153 754 153 754 166 754 c 256,64,65
 179 754 179 754 188 744 c 0,66,67
 197 735 197 735 197 722 c 256,68,69
 197 709 197 709 188 699 c 0,70,71
 179 690 179 690 166 690 c 1,72,73
 166 690 166 690 166 690 c 1,56,57
291 690 m 256,74,75
 278 690 278 690 269 699 c 0,76,77
 260 709 260 709 260 722 c 256,78,79
 260 735 260 735 269 744 c 0,80,81
 278 754 278 754 291 754 c 256,82,83
 304 754 304 754 314 744 c 0,84,85
 323 735 323 735 323 722 c 256,86,87
 323 709 323 709 314 699 c 0,88,89
 304 690 304 690 291 690 c 256,74,75
888 690 m 1,90,91
 762 690 762 690 385 690 c 1,92,93
 385 706 385 706 385 753 c 1,94,95
 511 753 511 753 888 753 c 1,96,97
 888 737 888 737 888 690 c 1,90,91
EndSplineSet
Validated: 5
EndChar

StartChar: unie605
Encoding: 58885 58885 9
Width: 1024
Flags: W
LayerCount: 2
Fore
SplineSet
143 81 m 257,0,1
 143 81 143 81 143 192 c 0,2,3
 143 302 143 302 143 438 c 256,4,5
 143 574 143 574 143 692 c 256,6,7
 143 810 143 810 143 825 c 0,8,9
 143 854 143 854 161 871 c 256,10,11
 179 888 179 888 210 888 c 0,12,13
 223 888 223 888 315 888 c 0,14,15
 408 888 408 888 516 888 c 0,16,17
 625 888 625 888 717 888 c 256,18,19
 809 888 809 888 822 888 c 0,20,21
 846 888 846 888 864 869 c 0,22,23
 882 849 882 849 882 815 c 0,24,25
 882 798 882 798 882 681 c 256,26,27
 882 564 882 564 882 430 c 0,28,29
 882 297 882 297 882 189 c 256,30,31
 882 81 882 81 882 81 c 257,32,33
 882 81 882 81 874 48 c 0,34,35
 867 15 867 15 819 15 c 0,36,37
 792 15 792 15 775 30 c 0,38,39
 758 44 758 44 758 44 c 1,40,41
 676 122 676 122 513 278 c 1,42,43
 448 216 448 216 254 31 c 1,44,45
 254 31 254 31 242 23 c 0,46,47
 229 15 229 15 208 15 c 0,48,49
 180 15 180 15 161 34 c 0,50,51
 143 54 143 54 143 81 c 1,52,53
 143 81 143 81 143 81 c 257,0,1
EndSplineSet
Validated: 5
EndChar

StartChar: unie606
Encoding: 58886 58886 10
Width: 1024
Flags: W
LayerCount: 2
Fore
SplineSet
880 816 m 1,0,1
 879 817 879 817 875 820 c 0,2,3
 844 852 844 852 804 868 c 256,4,5
 764 884 764 884 722 884 c 256,6,7
 680 884 680 884 641 868 c 0,8,9
 601 852 601 852 569 820 c 0,10,11
 511 762 511 762 395 646 c 0,12,13
 363 615 363 615 348 575 c 0,14,15
 332 535 332 535 332 493 c 256,16,17
 332 451 332 451 348 411 c 0,18,19
 363 372 363 372 395 340 c 0,20,21
 396 338 396 338 399 335 c 0,22,23
 408 326 408 326 418 318 c 0,24,25
 428 311 428 311 438 305 c 1,26,27
 466 332 466 332 522 387 c 1,28,29
 511 391 511 391 501 397 c 256,30,31
 491 403 491 403 482 412 c 0,32,33
 478 415 478 415 471 422 c 0,34,35
 440 454 440 454 440 498 c 0,36,37
 440 543 440 543 471 575 c 0,38,39
 528 631 528 631 641 744 c 0,40,41
 672 776 672 776 717 776 c 256,42,43
 762 776 762 776 793 744 c 0,44,45
 797 741 797 741 804 734 c 0,46,47
 835 702 835 702 835 658 c 0,48,49
 835 613 835 613 804 581 c 0,50,51
 782 559 782 559 737 515 c 1,52,53
 737 515 737 515 750 476 c 0,54,55
 756 456 756 456 756 432 c 256,56,57
 756 408 756 408 750 380 c 1,58,59
 793 423 793 423 880 510 c 0,60,61
 912 541 912 541 927 581 c 0,62,63
 943 621 943 621 943 662 c 0,64,65
 943 704 943 704 927 744 c 256,66,67
 911 784 911 784 880 816 c 1,68,69
 880 816 880 816 880 816 c 1,0,1
623 555 m 1,70,71
 622 556 622 556 619 560 c 0,72,73
 608 571 608 571 600 578 c 0,74,75
 592 584 592 584 578 592 c 1,76,77
 566 585 566 585 545 565 c 0,78,79
 524 544 524 544 496 509 c 1,80,81
 507 505 507 505 518 499 c 0,82,83
 528 492 528 492 536 483 c 0,84,85
 539 480 539 480 546 473 c 0,86,87
 578 441 578 441 578 397 c 0,88,89
 578 352 578 352 546 320 c 0,90,91
 490 264 490 264 377 151 c 0,92,93
 346 119 346 119 301 119 c 256,94,95
 256 119 256 119 224 151 c 0,96,97
 221 154 221 154 214 161 c 0,98,99
 183 193 183 193 183 238 c 0,100,101
 183 282 183 282 214 314 c 0,102,103
 236 335 236 335 279 378 c 1,104,105
 279 378 279 378 263 418 c 0,106,107
 256 436 256 436 256 457 c 0,108,109
 256 484 256 484 268 516 c 1,110,111
 225 472 225 472 138 385 c 0,112,113
 106 354 106 354 90 314 c 256,114,115
 74 274 74 274 74 232 c 0,116,117
 74 191 74 191 90 151 c 256,118,119
 106 111 106 111 138 79 c 0,120,121
 139 77 139 77 142 74 c 0,122,123
 174 43 174 43 214 27 c 256,124,125
 254 11 254 11 295 11 c 0,126,127
 337 11 337 11 377 27 c 256,128,129
 417 43 417 43 449 74 c 0,130,131
 507 132 507 132 623 249 c 0,132,133
 655 280 655 280 671 320 c 256,134,135
 687 360 687 360 687 402 c 256,136,137
 687 444 687 444 671 484 c 256,138,139
 655 524 655 524 623 555 c 1,140,141
 623 555 623 555 623 555 c 1,70,71
EndSplineSet
Validated: 9
EndChar

StartChar: unie607
Encoding: 58887 58887 11
Width: 1024
Flags: W
LayerCount: 2
Fore
SplineSet
878 82 m 1,0,1
 714 173 714 173 220 448 c 1,2,3
 385 540 385 540 878 814 c 1,4,5
 878 631 878 631 878 82 c 1,0,1
220 82 m 1,6,7
 202 82 202 82 146 82 c 1,8,9
 146 265 146 265 146 814 c 1,10,11
 164 814 164 814 220 814 c 1,12,13
 220 631 220 631 220 82 c 1,6,7
EndSplineSet
Validated: 5
EndChar

StartChar: unie608
Encoding: 58888 58888 12
Width: 1024
Flags: W
LayerCount: 2
Fore
SplineSet
878 82 m 1,0,1
 714 173 714 173 220 448 c 1,2,3
 385 540 385 540 878 814 c 1,4,5
 878 631 878 631 878 82 c 1,0,1
EndSplineSet
Validated: 1
EndChar

StartChar: unie609
Encoding: 58889 58889 13
Width: 1024
Flags: W
LayerCount: 2
Fore
SplineSet
146 814 m 1,0,1
 310 723 310 723 804 448 c 1,2,3
 639 356 639 356 146 82 c 1,4,5
 146 265 146 265 146 814 c 1,0,1
EndSplineSet
Validated: 1
EndChar

StartChar: unie60a
Encoding: 58890 58890 14
Width: 1024
Flags: W
LayerCount: 2
Fore
SplineSet
146 814 m 1,0,1
 310 723 310 723 804 448 c 1,2,3
 639 356 639 356 146 82 c 1,4,5
 146 265 146 265 146 814 c 1,0,1
804 814 m 1,6,7
 822 814 822 814 878 814 c 1,8,9
 878 631 878 631 878 82 c 1,10,11
 860 82 860 82 804 82 c 1,12,13
 804 265 804 265 804 814 c 1,6,7
EndSplineSet
Validated: 5
EndChar

StartChar: unie60b
Encoding: 58891 58891 15
Width: 1024
Flags: W
LayerCount: 2
Fore
SplineSet
825 887 m 257,0,1
 825 887 825 887 745 887 c 256,2,3
 665 887 665 887 559 887 c 256,4,5
 453 887 453 887 349 887 c 256,6,7
 245 887 245 887 198 887 c 0,8,9
 104 887 104 887 89 824 c 0,10,11
 73 762 73 762 73 762 c 1,12,13
 73 657 73 657 73 448 c 0,14,15
 73 354 73 354 136 338 c 0,16,17
 198 323 198 323 198 323 c 1,18,19
 303 323 303 323 512 323 c 1,20,21
 559 245 559 245 700 9 c 1,22,23
 700 88 700 88 700 323 c 1,24,25
 731 323 731 323 825 323 c 256,26,27
 919 323 919 323 935 386 c 0,28,29
 951 448 951 448 951 448 c 1,30,31
 951 553 951 553 951 762 c 0,32,33
 951 856 951 856 888 871 c 0,34,35
 825 887 825 887 825 887 c 257,0,1
EndSplineSet
Validated: 9
EndChar

StartChar: unie60c
Encoding: 58892 58892 16
Width: 1024
Flags: W
LayerCount: 2
Fore
SplineSet
734 668 m 1,0,1
 734 622 734 622 717 582 c 0,2,3
 699 541 699 541 669 510 c 0,4,5
 639 480 639 480 598 463 c 0,6,7
 558 446 558 446 512 446 c 256,8,9
 466 446 466 446 426 463 c 0,10,11
 385 480 385 480 355 510 c 0,12,13
 325 541 325 541 307 582 c 0,14,15
 290 622 290 622 290 668 c 256,16,17
 290 714 290 714 307 754 c 0,18,19
 325 794 325 794 355 824 c 0,20,21
 385 855 385 855 426 872 c 0,22,23
 466 890 466 890 512 890 c 256,24,25
 558 890 558 890 598 872 c 0,26,27
 639 855 639 855 669 824 c 0,28,29
 699 794 699 794 717 754 c 0,30,31
 734 714 734 714 734 668 c 1,32,33
 734 668 734 668 734 668 c 1,0,1
74 82 m 257,34,35
 74 82 74 82 78 128 c 256,36,37
 82 174 82 174 105 228 c 0,38,39
 129 283 129 283 180 329 c 256,40,41
 231 375 231 375 324 375 c 0,42,43
 449 375 449 375 700 375 c 1,44,45
 700 375 700 375 739 369 c 256,46,47
 778 363 778 363 825 335 c 256,48,49
 872 307 872 307 911 248 c 256,50,51
 950 189 950 189 950 82 c 1,52,53
 658 82 658 82 74 82 c 1,54,55
 74 82 74 82 74 82 c 257,34,35
EndSplineSet
Validated: 5
EndChar

StartChar: unie60d
Encoding: 58893 58893 17
Width: 1024
Flags: W
LayerCount: 2
Fore
SplineSet
990 457 m 1,0,1
 956 508 956 508 854 662 c 1,2,3
 820 662 820 662 717 662 c 1,4,5
 717 679 717 679 717 731 c 0,6,7
 717 782 717 782 683 790 c 0,8,9
 649 799 649 799 649 799 c 1,10,11
 467 799 467 799 102 799 c 0,12,13
 51 799 51 799 42 765 c 0,14,15
 34 731 34 731 34 731 c 1,16,17
 34 571 34 571 34 252 c 1,18,19
 51 235 51 235 102 184 c 1,20,21
 115 184 115 184 153 184 c 1,22,23
 153 180 153 180 153 176 c 0,24,25
 152 173 152 173 152 169 c 0,26,27
 152 119 152 119 187 83 c 0,28,29
 223 48 223 48 273 48 c 256,30,31
 323 48 323 48 358 83 c 0,32,33
 394 119 394 119 394 169 c 0,34,35
 394 173 394 173 394 176 c 0,36,37
 393 180 393 180 393 184 c 1,38,39
 489 184 489 184 680 184 c 1,40,41
 680 180 680 180 679 176 c 0,42,43
 679 173 679 173 679 169 c 0,44,45
 679 119 679 119 714 83 c 0,46,47
 750 48 750 48 800 48 c 256,48,49
 850 48 850 48 886 83 c 0,50,51
 921 119 921 119 921 169 c 0,52,53
 921 173 921 173 921 176 c 0,54,55
 921 180 921 180 920 184 c 1,56,57
 943 184 943 184 990 184 c 1,58,59
 990 252 990 252 990 457 c 1,60,61
 990 457 990 457 990 457 c 1,0,1
717 457 m 1,62,63
 717 491 717 491 717 594 c 1,64,65
 740 594 740 594 808 594 c 1,66,67
 832 560 832 560 905 457 c 1,68,69
 858 457 858 457 717 457 c 1,70,71
 717 457 717 457 717 457 c 1,62,63
EndSplineSet
Validated: 5
EndChar

StartChar: unie60e
Encoding: 58894 58894 18
Width: 1024
Flags: W
LayerCount: 2
Fore
SplineSet
854 662 m 1,0,1
 820 662 820 662 717 662 c 1,2,3
 717 679 717 679 717 731 c 0,4,5
 717 782 717 782 683 790 c 0,6,7
 649 799 649 799 649 799 c 1,8,9
 467 799 467 799 102 799 c 0,10,11
 51 799 51 799 42 765 c 0,12,13
 34 731 34 731 34 731 c 1,14,15
 34 571 34 571 34 252 c 1,16,17
 51 235 51 235 102 184 c 1,18,19
 115 184 115 184 153 184 c 1,20,21
 153 180 153 180 153 176 c 0,22,23
 152 173 152 173 152 169 c 0,24,25
 152 119 152 119 187 83 c 0,26,27
 223 48 223 48 273 48 c 256,28,29
 323 48 323 48 358 83 c 0,30,31
 394 119 394 119 394 169 c 0,32,33
 394 173 394 173 394 176 c 0,34,35
 393 180 393 180 393 184 c 1,36,37
 489 184 489 184 680 184 c 1,38,39
 680 180 680 180 679 176 c 0,40,41
 679 173 679 173 679 169 c 0,42,43
 679 119 679 119 714 83 c 0,44,45
 750 48 750 48 800 48 c 256,46,47
 850 48 850 48 886 83 c 0,48,49
 921 119 921 119 921 169 c 0,50,51
 921 173 921 173 921 176 c 0,52,53
 921 180 921 180 920 184 c 1,54,55
 943 184 943 184 990 184 c 1,56,57
 990 252 990 252 990 457 c 1,58,59
 990 457 990 457 990 457 c 1,60,61
 956 508 956 508 854 662 c 1,62,63
 854 662 854 662 854 662 c 1,0,1
641 309 m 1,64,65
 514 309 514 309 131 309 c 1,66,67
 131 406 131 406 131 697 c 1,68,69
 259 697 259 697 641 697 c 1,70,71
 641 600 641 600 641 309 c 1,64,65
717 457 m 1,72,73
 717 491 717 491 717 594 c 1,74,75
 740 594 740 594 808 594 c 1,76,77
 832 560 832 560 905 457 c 1,78,79
 858 457 858 457 717 457 c 1,80,81
 717 457 717 457 717 457 c 1,72,73
256 640 m 1,82,83
 320 640 320 640 512 640 c 1,84,85
 512 628 512 628 512 592 c 1,86,87
 448 592 448 592 256 592 c 1,88,89
 256 604 256 604 256 640 c 1,82,83
352 592 m 1,90,91
 368 592 368 592 416 592 c 1,92,93
 416 540 416 540 416 384 c 1,94,95
 400 384 400 384 352 384 c 1,96,97
 352 436 352 436 352 592 c 1,98,99
 352 592 352 592 352 592 c 1,90,91
EndSplineSet
Validated: 5
EndChar

StartChar: unie60f
Encoding: 58895 58895 19
Width: 1024
Flags: W
LayerCount: 2
Fore
SplineSet
726 278 m 0,0,1
 726 299 726 299 726 362 c 1,2,3
 790 362 790 362 982 362 c 1,4,5
 982 341 982 341 982 278 c 0,6,7
 982 236 982 236 958 204 c 256,8,9
 934 172 934 172 896 158 c 1,10,11
 896 98 896 98 896 -22 c 1,12,13
 874 -22 874 -22 810 -22 c 1,14,15
 810 23 810 23 810 158 c 1,16,17
 726 188 726 188 726 278 c 0,0,1
554 874 m 0,18,19
 554 831 554 831 554 704 c 1,20,21
 575 704 575 704 640 704 c 1,22,23
 640 640 640 640 640 448 c 1,24,25
 576 448 576 448 384 448 c 1,26,27
 384 512 384 512 384 704 c 1,28,29
 406 704 406 704 470 704 c 1,30,31
 470 746 470 746 470 874 c 0,32,33
 470 892 470 892 482 905 c 256,34,35
 494 918 494 918 512 918 c 256,36,37
 530 918 530 918 542 905 c 256,38,39
 554 892 554 892 554 874 c 0,18,19
896 704 m 1,40,41
 918 704 918 704 982 704 c 1,42,43
 982 640 982 640 982 448 c 1,44,45
 918 448 918 448 726 448 c 1,46,47
 726 512 726 512 726 704 c 1,48,49
 747 704 747 704 810 704 c 1,50,51
 810 746 810 746 810 874 c 0,52,53
 810 892 810 892 823 905 c 256,54,55
 836 918 836 918 854 918 c 256,56,57
 872 918 872 918 884 905 c 256,58,59
 896 892 896 892 896 874 c 0,60,61
 896 817 896 817 896 704 c 1,40,41
42 278 m 0,62,63
 42 299 42 299 42 362 c 1,64,65
 106 362 106 362 298 362 c 1,66,67
 298 341 298 341 298 278 c 0,68,69
 298 188 298 188 214 158 c 1,70,71
 214 98 214 98 214 -22 c 1,72,73
 193 -22 193 -22 128 -22 c 1,74,75
 128 23 128 23 128 158 c 1,76,77
 90 172 90 172 66 204 c 256,78,79
 42 236 42 236 42 278 c 0,62,63
384 278 m 0,80,81
 384 299 384 299 384 362 c 1,82,83
 448 362 448 362 640 362 c 1,84,85
 640 341 640 341 640 278 c 0,86,87
 640 236 640 236 616 204 c 256,88,89
 592 172 592 172 554 158 c 1,90,91
 554 98 554 98 554 -22 c 1,92,93
 533 -22 533 -22 470 -22 c 1,94,95
 470 23 470 23 470 158 c 1,96,97
 432 172 432 172 408 204 c 256,98,99
 384 236 384 236 384 278 c 0,80,81
214 874 m 0,100,101
 214 831 214 831 214 704 c 1,102,103
 235 704 235 704 298 704 c 1,104,105
 298 640 298 640 298 448 c 1,106,107
 234 448 234 448 42 448 c 1,108,109
 42 512 42 512 42 704 c 1,110,111
 63 704 63 704 128 704 c 1,112,113
 128 746 128 746 128 874 c 0,114,115
 128 892 128 892 140 905 c 256,116,117
 152 918 152 918 170 918 c 256,118,119
 188 918 188 918 201 905 c 256,120,121
 214 892 214 892 214 874 c 0,100,101
EndSplineSet
Validated: 1
EndChar

StartChar: unie610
Encoding: 58896 58896 20
Width: 1024
Flags: W
LayerCount: 2
Fore
SplineSet
1024 384 m 1,0,1
 976 384 976 384 831 384 c 1,2,3
 828 350 828 350 820 318 c 0,4,5
 811 285 811 285 797 256 c 1,6,7
 838 256 838 256 921 256 c 1,8,9
 939 186 939 186 991 -24 c 1,10,11
 975 -28 975 -28 929 -40 c 1,12,13
 915 18 915 18 871 192 c 1,14,15
 843 192 843 192 759 192 c 1,16,17
 715 134 715 134 650 100 c 0,18,19
 586 65 586 65 512 65 c 256,20,21
 438 65 438 65 374 100 c 0,22,23
 309 134 309 134 265 192 c 1,24,25
 228 192 228 192 153 192 c 1,26,27
 139 134 139 134 95 -40 c 1,28,29
 79 -36 79 -36 33 -24 c 1,30,31
 51 46 51 46 103 256 c 1,32,33
 134 256 134 256 227 256 c 1,34,35
 213 285 213 285 204 318 c 0,36,37
 196 350 196 350 193 384 c 1,38,39
 129 384 129 384 0 384 c 1,40,41
 0 400 0 400 0 448 c 1,42,43
 48 448 48 448 193 448 c 1,44,45
 198 503 198 503 217 551 c 0,46,47
 235 600 235 600 265 640 c 1,48,49
 211 640 211 640 103 640 c 1,50,51
 85 710 85 710 33 920 c 1,52,53
 49 924 49 924 95 936 c 1,54,55
 109 878 109 878 153 704 c 1,56,57
 197 704 197 704 328 704 c 1,58,59
 328 705 328 705 329 706 c 0,60,61
 330 706 330 706 330 706 c 1,62,63
 325 721 325 721 322 737 c 0,64,65
 320 752 320 752 320 769 c 0,66,67
 320 848 320 848 376 904 c 256,68,69
 432 960 432 960 512 960 c 256,70,71
 592 960 592 960 648 904 c 256,72,73
 704 848 704 848 704 769 c 0,74,75
 704 752 704 752 702 737 c 0,76,77
 699 721 699 721 694 706 c 1,78,79
 694 706 694 706 695 706 c 0,80,81
 696 705 696 705 696 704 c 1,82,83
 754 704 754 704 871 704 c 1,84,85
 885 762 885 762 929 936 c 1,86,87
 945 932 945 932 991 920 c 1,88,89
 973 850 973 850 921 640 c 1,90,91
 881 640 881 640 759 640 c 1,92,93
 789 600 789 600 807 551 c 0,94,95
 826 503 826 503 831 448 c 1,96,97
 895 448 895 448 1024 448 c 1,98,99
 1024 432 1024 432 1024 384 c 1,0,1
EndSplineSet
Validated: 1
EndChar

StartChar: unie611
Encoding: 58897 58897 21
Width: 1024
Flags: W
LayerCount: 2
Fore
SplineSet
7 951 m 1,0,1
 7 942 7 942 7 914 c 1,2,3
 8 928 8 928 18 938 c 0,4,5
 27 949 27 949 41 951 c 1,6,7
 30 951 30 951 7 951 c 1,0,1
41 951 m 0,8,9
 229 951 229 951 794 951 c 0,10,11
 808 949 808 949 817 939 c 256,12,13
 826 929 826 929 828 915 c 0,14,15
 828 665 828 665 828 165 c 0,16,17
 826 151 826 151 816 141 c 0,18,19
 807 132 807 132 794 130 c 0,20,21
 543 130 543 130 41 130 c 0,22,23
 27 132 27 132 18 142 c 0,24,25
 8 153 8 153 7 167 c 0,26,27
 7 416 7 416 7 914 c 0,28,29
 8 928 8 928 18 938 c 0,30,31
 27 949 27 949 41 951 c 0,8,9
794 951 m 1,32,33
 808 949 808 949 817 939 c 256,34,35
 826 929 826 929 828 915 c 1,36,37
 828 927 828 927 828 951 c 1,38,39
 820 951 820 951 794 951 c 1,32,33
34 933 m 0,40,41
 21 927 21 927 22 909 c 0,42,43
 22 474 22 474 22 185 c 0,44,45
 22 182 22 182 22 176 c 256,46,47
 22 170 22 170 22 167 c 0,48,49
 23 164 23 164 24 159 c 0,50,51
 26 155 26 155 29 152 c 0,52,53
 31 149 31 149 35 147 c 0,54,55
 39 146 39 146 42 145 c 0,56,57
 45 145 45 145 51 146 c 0,58,59
 57 146 57 146 59 145 c 0,60,61
 194 146 194 146 424 146 c 256,62,63
 654 146 654 146 790 146 c 0,64,65
 799 145 799 145 806 152 c 256,66,67
 813 159 813 159 812 169 c 0,68,69
 813 541 813 541 812 912 c 0,70,71
 813 922 813 922 806 930 c 0,72,73
 799 937 799 937 789 935 c 0,74,75
 690 936 690 936 419 935 c 0,76,77
 148 935 148 935 49 936 c 0,78,79
 38 935 38 935 34 933 c 0,40,41
376 854 m 0,80,81
 399 873 399 873 432 866 c 0,82,83
 466 859 466 859 477 831 c 0,84,85
 489 810 489 810 483 786 c 0,86,87
 476 761 476 761 456 748 c 1,88,89
 456 741 456 741 456 726 c 0,90,91
 456 712 456 712 456 706 c 1,92,93
 475 706 475 706 475 706 c 2,94,95
 480 705 480 705 491 709 c 0,96,97
 503 712 503 712 510 710 c 0,98,99
 522 708 522 708 533 691 c 1,100,101
 532 669 532 669 532 667 c 0,102,103
 522 647 522 647 504 649 c 0,104,105
 500 648 500 648 492 651 c 256,106,107
 484 654 484 654 482 654 c 0,108,109
 479 654 479 654 456 654 c 1,110,111
 456 630 456 630 456 498 c 0,112,113
 456 365 456 365 456 341 c 1,114,115
 514 343 514 343 564 375 c 0,116,117
 571 379 571 379 578 385 c 0,118,119
 584 391 584 391 592 399 c 256,120,121
 600 407 600 407 604 411 c 1,122,123
 598 411 598 411 588 410 c 0,124,125
 578 408 578 408 572 408 c 0,126,127
 567 408 567 408 557 411 c 0,128,129
 554 413 554 413 552 419 c 256,130,131
 550 425 550 425 550 425 c 1,132,133
 556 436 556 436 561 439 c 0,134,135
 579 449 579 449 611 469 c 0,136,137
 643 488 643 488 655 495 c 0,138,139
 662 500 662 500 670 496 c 0,140,141
 677 493 677 493 679 485 c 0,142,143
 695 400 695 400 700 374 c 0,144,145
 700 369 700 369 694 357 c 1,146,147
 686 357 686 357 678 357 c 1,148,149
 668 366 668 366 651 389 c 1,150,151
 616 335 616 335 568 296 c 256,152,153
 520 257 520 257 463 245 c 0,154,155
 456 241 456 241 445 229 c 256,156,157
 434 217 434 217 428 213 c 0,158,159
 414 206 414 206 404 215 c 0,160,161
 400 219 400 219 390 230 c 0,162,163
 379 241 379 241 372 245 c 0,164,165
 294 263 294 263 236 324 c 0,166,167
 211 347 211 347 184 389 c 1,168,169
 167 366 167 366 157 357 c 1,170,171
 149 357 149 357 141 357 c 1,172,173
 134 369 134 369 136 377 c 0,174,175
 142 410 142 410 156 485 c 0,176,177
 157 493 157 493 165 496 c 0,178,179
 173 500 173 500 180 495 c 0,180,181
 191 488 191 488 224 469 c 0,182,183
 257 449 257 449 275 438 c 0,184,185
 278 437 278 437 285 425 c 0,186,187
 284 424 284 424 283 420 c 256,188,189
 282 416 282 416 280 413 c 0,190,191
 279 411 279 411 276 410 c 0,192,193
 273 406 273 406 254 409 c 0,194,195
 235 411 235 411 231 411 c 1,196,197
 234 408 234 408 246 397 c 0,198,199
 257 385 257 385 263 380 c 0,200,201
 315 343 315 343 379 341 c 1,202,203
 379 389 379 389 379 498 c 256,204,205
 379 607 379 607 379 654 c 1,206,207
 377 654 377 654 368 654 c 0,208,209
 359 655 359 655 353 654 c 0,210,211
 348 653 348 653 343 651 c 0,212,213
 331 646 331 646 318 652 c 0,214,215
 306 657 306 657 303 669 c 0,216,217
 302 673 302 673 302 691 c 1,218,219
 308 703 308 703 320 708 c 0,220,221
 333 714 333 714 345 708 c 0,222,223
 350 706 350 706 356 706 c 0,224,225
 361 705 361 705 368 705 c 0,226,227
 376 706 376 706 379 706 c 1,228,229
 379 706 379 706 379 748 c 1,230,231
 359 760 359 760 351 793 c 0,232,233
 351 803 351 803 351 814 c 0,234,235
 363 846 363 846 376 854 c 0,80,81
405 813 m 0,236,237
 399 802 399 802 405 791 c 0,238,239
 410 789 410 789 417 785 c 1,240,241
 425 789 425 789 430 791 c 0,242,243
 436 802 436 802 430 813 c 0,244,245
 426 815 426 815 417 819 c 1,246,247
 409 815 409 815 405 813 c 0,236,237
7 167 m 1,248,249
 7 158 7 158 7 130 c 1,250,251
 15 130 15 130 41 130 c 1,252,253
 27 132 27 132 18 142 c 0,254,255
 8 153 8 153 7 167 c 1,248,249
794 130 m 1,256,257
 802 130 802 130 828 130 c 1,258,259
 828 139 828 139 828 165 c 1,260,261
 826 151 826 151 816 141 c 0,262,263
 807 132 807 132 794 130 c 1,256,257
EndSplineSet
Validated: 37
EndChar

StartChar: unie612
Encoding: 58898 58898 22
Width: 1024
Flags: W
LayerCount: 2
Fore
SplineSet
7 951 m 1,0,1
 7 942 7 942 7 914 c 1,2,3
 8 928 8 928 18 938 c 0,4,5
 27 949 27 949 41 951 c 1,6,7
 30 951 30 951 7 951 c 1,0,1
41 951 m 0,8,9
 229 951 229 951 794 951 c 0,10,11
 808 949 808 949 817 939 c 256,12,13
 826 929 826 929 828 915 c 0,14,15
 828 665 828 665 828 165 c 0,16,17
 826 151 826 151 816 141 c 0,18,19
 807 132 807 132 794 130 c 0,20,21
 543 130 543 130 41 130 c 0,22,23
 27 132 27 132 18 142 c 0,24,25
 8 153 8 153 7 167 c 0,26,27
 7 416 7 416 7 914 c 0,28,29
 8 928 8 928 18 938 c 0,30,31
 27 949 27 949 41 951 c 0,8,9
794 951 m 1,32,33
 808 949 808 949 817 939 c 256,34,35
 826 929 826 929 828 915 c 1,36,37
 828 927 828 927 828 951 c 1,38,39
 820 951 820 951 794 951 c 1,32,33
34 933 m 0,40,41
 21 927 21 927 22 909 c 0,42,43
 22 474 22 474 22 185 c 0,44,45
 22 182 22 182 22 176 c 256,46,47
 22 170 22 170 22 167 c 0,48,49
 23 164 23 164 24 159 c 0,50,51
 26 155 26 155 29 152 c 0,52,53
 31 149 31 149 35 147 c 0,54,55
 39 146 39 146 42 145 c 0,56,57
 45 145 45 145 51 146 c 0,58,59
 57 146 57 146 59 145 c 0,60,61
 194 146 194 146 424 146 c 256,62,63
 654 146 654 146 790 146 c 0,64,65
 799 145 799 145 806 152 c 256,66,67
 813 159 813 159 812 169 c 0,68,69
 813 541 813 541 812 912 c 0,70,71
 813 922 813 922 806 930 c 0,72,73
 799 937 799 937 789 935 c 0,74,75
 690 936 690 936 419 935 c 0,76,77
 148 935 148 935 49 936 c 0,78,79
 38 935 38 935 34 933 c 0,40,41
376 854 m 0,80,81
 399 873 399 873 432 866 c 0,82,83
 466 859 466 859 477 831 c 0,84,85
 489 810 489 810 483 786 c 0,86,87
 476 761 476 761 456 748 c 1,88,89
 456 741 456 741 456 726 c 0,90,91
 456 712 456 712 456 706 c 1,92,93
 475 706 475 706 475 706 c 2,94,95
 480 705 480 705 491 709 c 0,96,97
 503 712 503 712 510 710 c 0,98,99
 522 708 522 708 533 691 c 1,100,101
 532 669 532 669 532 667 c 0,102,103
 522 647 522 647 504 649 c 0,104,105
 500 648 500 648 492 651 c 256,106,107
 484 654 484 654 482 654 c 0,108,109
 479 654 479 654 456 654 c 1,110,111
 456 630 456 630 456 498 c 0,112,113
 456 365 456 365 456 341 c 1,114,115
 514 343 514 343 564 375 c 0,116,117
 571 379 571 379 578 385 c 0,118,119
 584 391 584 391 592 399 c 256,120,121
 600 407 600 407 604 411 c 1,122,123
 598 411 598 411 588 410 c 0,124,125
 578 408 578 408 572 408 c 0,126,127
 567 408 567 408 557 411 c 0,128,129
 554 413 554 413 552 419 c 256,130,131
 550 425 550 425 550 425 c 1,132,133
 556 436 556 436 561 439 c 0,134,135
 579 449 579 449 611 469 c 0,136,137
 643 488 643 488 655 495 c 0,138,139
 662 500 662 500 670 496 c 0,140,141
 677 493 677 493 679 485 c 0,142,143
 695 400 695 400 700 374 c 0,144,145
 700 369 700 369 694 357 c 1,146,147
 686 357 686 357 678 357 c 1,148,149
 668 366 668 366 651 389 c 1,150,151
 616 335 616 335 568 296 c 256,152,153
 520 257 520 257 463 245 c 0,154,155
 456 241 456 241 445 229 c 256,156,157
 434 217 434 217 428 213 c 0,158,159
 414 206 414 206 404 215 c 0,160,161
 400 219 400 219 390 230 c 0,162,163
 379 241 379 241 372 245 c 0,164,165
 294 263 294 263 236 324 c 0,166,167
 211 347 211 347 184 389 c 1,168,169
 167 366 167 366 157 357 c 1,170,171
 149 357 149 357 141 357 c 1,172,173
 134 369 134 369 136 377 c 0,174,175
 142 410 142 410 156 485 c 0,176,177
 157 493 157 493 165 496 c 0,178,179
 173 500 173 500 180 495 c 0,180,181
 191 488 191 488 224 469 c 0,182,183
 257 449 257 449 275 438 c 0,184,185
 278 437 278 437 285 425 c 0,186,187
 284 424 284 424 283 420 c 256,188,189
 282 416 282 416 280 413 c 0,190,191
 279 411 279 411 276 410 c 0,192,193
 273 406 273 406 254 409 c 0,194,195
 235 411 235 411 231 411 c 1,196,197
 234 408 234 408 246 397 c 0,198,199
 257 385 257 385 263 380 c 0,200,201
 315 343 315 343 379 341 c 1,202,203
 379 389 379 389 379 498 c 256,204,205
 379 607 379 607 379 654 c 1,206,207
 377 654 377 654 368 654 c 0,208,209
 359 655 359 655 353 654 c 0,210,211
 348 653 348 653 343 651 c 0,212,213
 331 646 331 646 318 652 c 0,214,215
 306 657 306 657 303 669 c 0,216,217
 302 673 302 673 302 691 c 1,218,219
 308 703 308 703 320 708 c 0,220,221
 333 714 333 714 345 708 c 0,222,223
 350 706 350 706 356 706 c 0,224,225
 361 705 361 705 368 705 c 0,226,227
 376 706 376 706 379 706 c 1,228,229
 379 706 379 706 379 748 c 1,230,231
 359 760 359 760 351 793 c 0,232,233
 351 803 351 803 351 814 c 0,234,235
 363 846 363 846 376 854 c 0,80,81
405 813 m 0,236,237
 399 802 399 802 405 791 c 0,238,239
 410 789 410 789 417 785 c 1,240,241
 425 789 425 789 430 791 c 0,242,243
 436 802 436 802 430 813 c 0,244,245
 426 815 426 815 417 819 c 1,246,247
 409 815 409 815 405 813 c 0,236,237
7 167 m 1,248,249
 7 158 7 158 7 130 c 1,250,251
 15 130 15 130 41 130 c 1,252,253
 27 132 27 132 18 142 c 0,254,255
 8 153 8 153 7 167 c 1,248,249
794 130 m 1,256,257
 802 130 802 130 828 130 c 1,258,259
 828 139 828 139 828 165 c 1,260,261
 826 151 826 151 816 141 c 0,262,263
 807 132 807 132 794 130 c 1,256,257
594 99 m 1,264,265
 650 156 650 156 818 325 c 1,266,267
 846 297 846 297 931 212 c 1,268,269
 875 155 875 155 706 -15 c 1,270,271
 669 -24 669 -24 557 -52 c 1,272,273
 566 -14 566 -14 594 99 c 1,264,265
987 376 m 1,274,275
 1006 351 1006 351 1008 331 c 0,276,277
 1009 326 1009 326 1009 321 c 0,278,279
 1009 305 1009 305 999 291 c 0,280,281
 992 281 992 281 979 261 c 0,282,283
 976 258 976 258 968 249 c 1,284,285
 940 278 940 278 856 363 c 1,286,287
 859 366 859 366 868 373 c 0,288,289
 880 384 880 384 899 392 c 256,290,291
 918 400 918 400 941 399 c 0,292,293
 964 399 964 399 987 376 c 1,274,275
EndSplineSet
Validated: 37
EndChar

StartChar: unie613
Encoding: 58899 58899 23
Width: 1024
Flags: W
LayerCount: 2
Fore
SplineSet
7 950 m 1,0,1
 7 942 7 942 7 916 c 1,2,3
 8 929 8 929 17 938 c 0,4,5
 26 948 26 948 39 950 c 1,6,7
 28 950 28 950 7 950 c 1,0,1
39 950 m 0,8,9
 228 950 228 950 796 950 c 0,10,11
 809 948 809 948 818 938 c 0,12,13
 826 929 826 929 828 917 c 0,14,15
 828 665 828 665 828 162 c 0,16,17
 826 149 826 149 817 140 c 256,18,19
 808 131 808 131 796 129 c 0,20,21
 543 129 543 129 38 129 c 0,22,23
 30 130 30 130 23 135 c 256,24,25
 16 140 16 140 11 147 c 0,26,27
 7 155 7 155 7 164 c 0,28,29
 7 415 7 415 7 916 c 0,30,31
 8 929 8 929 17 938 c 0,32,33
 26 948 26 948 39 950 c 0,8,9
796 950 m 1,34,35
 809 948 809 948 818 938 c 0,36,37
 826 929 826 929 828 917 c 1,38,39
 828 928 828 928 828 950 c 1,40,41
 820 950 820 950 796 950 c 1,34,35
33 933 m 0,42,43
 20 928 20 928 22 908 c 0,44,45
 22 771 22 771 22 538 c 256,46,47
 22 305 22 305 22 167 c 0,48,49
 21 158 21 158 27 151 c 256,50,51
 33 144 33 144 42 144 c 0,52,53
 175 144 175 144 407 144 c 0,54,55
 640 144 640 144 773 144 c 0,56,57
 795 144 795 144 799 145 c 0,58,59
 814 149 814 149 813 167 c 0,60,61
 813 266 813 266 813 538 c 256,62,63
 813 810 813 810 813 908 c 0,64,65
 812 924 812 924 807 929 c 0,66,67
 804 932 804 932 800 933 c 0,68,69
 797 934 797 934 793 934 c 0,70,71
 790 935 790 935 786 935 c 0,72,73
 783 935 783 935 779 935 c 0,74,75
 616 935 616 935 45 935 c 0,76,77
 39 935 39 935 33 933 c 0,42,43
126 753 m 1,78,79
 157 758 157 758 171 745 c 0,80,81
 190 733 190 733 193 707 c 0,82,83
 195 682 195 682 179 666 c 0,84,85
 159 644 159 644 124 652 c 1,86,87
 95 664 95 664 91 689 c 0,88,89
 88 715 88 715 96 729 c 0,90,91
 103 744 103 744 126 753 c 1,78,79
260 754 m 1,92,93
 617 754 617 754 747 754 c 1,94,95
 747 704 747 704 747 653 c 1,96,97
 585 653 585 653 260 653 c 1,98,99
 260 687 260 687 260 754 c 1,92,93
103 581 m 0,100,101
 116 594 116 594 142 597 c 0,102,103
 160 596 160 596 178 582 c 0,104,105
 193 567 193 567 193 545 c 256,106,107
 193 523 193 523 179 508 c 0,108,109
 167 495 167 495 149 492 c 256,110,111
 131 489 131 489 116 498 c 0,112,113
 94 509 94 509 90 536 c 256,114,115
 86 563 86 563 103 581 c 0,100,101
260 594 m 1,116,117
 585 594 585 594 747 594 c 1,118,119
 747 544 747 544 747 494 c 1,120,121
 422 494 422 494 260 494 c 1,122,123
 260 544 260 544 260 594 c 1,116,117
120 421 m 0,124,125
 135 428 135 428 152 425 c 0,126,127
 169 421 169 421 180 408 c 0,128,129
 195 393 195 393 193 370 c 0,130,131
 191 346 191 346 174 333 c 0,132,133
 156 316 156 316 129 323 c 0,134,135
 101 329 101 329 93 353 c 0,136,137
 82 386 82 386 101 407 c 0,138,139
 106 414 106 414 120 421 c 0,124,125
260 425 m 1,140,141
 422 425 422 425 747 425 c 1,142,143
 747 373 747 373 747 322 c 1,144,145
 585 322 585 322 260 322 c 1,146,147
 260 356 260 356 260 425 c 1,140,141
7 164 m 1,148,149
 7 155 7 155 7 129 c 1,150,151
 15 129 15 129 38 129 c 1,152,153
 30 130 30 130 23 135 c 256,154,155
 16 140 16 140 11 147 c 0,156,157
 7 155 7 155 7 164 c 1,148,149
796 129 m 1,158,159
 804 129 804 129 828 129 c 1,160,161
 828 137 828 137 828 162 c 1,162,163
 826 149 826 149 817 140 c 256,164,165
 808 131 808 131 796 129 c 1,158,159
EndSplineSet
Validated: 37
EndChar

StartChar: unie614
Encoding: 58900 58900 24
Width: 1024
Flags: W
LayerCount: 2
Fore
SplineSet
7 950 m 1,0,1
 7 942 7 942 7 916 c 1,2,3
 8 929 8 929 17 938 c 0,4,5
 26 948 26 948 39 950 c 1,6,7
 28 950 28 950 7 950 c 1,0,1
39 950 m 0,8,9
 228 950 228 950 796 950 c 0,10,11
 809 948 809 948 818 938 c 0,12,13
 826 929 826 929 828 917 c 0,14,15
 828 665 828 665 828 162 c 0,16,17
 826 149 826 149 817 140 c 256,18,19
 808 131 808 131 796 129 c 0,20,21
 543 129 543 129 38 129 c 0,22,23
 30 130 30 130 23 135 c 256,24,25
 16 140 16 140 11 147 c 0,26,27
 7 155 7 155 7 164 c 0,28,29
 7 415 7 415 7 916 c 0,30,31
 8 929 8 929 17 938 c 0,32,33
 26 948 26 948 39 950 c 0,8,9
796 950 m 1,34,35
 809 948 809 948 818 938 c 0,36,37
 826 929 826 929 828 917 c 1,38,39
 828 928 828 928 828 950 c 1,40,41
 820 950 820 950 796 950 c 1,34,35
33 933 m 0,42,43
 20 928 20 928 22 908 c 0,44,45
 22 771 22 771 22 538 c 256,46,47
 22 305 22 305 22 167 c 0,48,49
 21 158 21 158 27 151 c 256,50,51
 33 144 33 144 42 144 c 0,52,53
 175 144 175 144 407 144 c 0,54,55
 640 144 640 144 773 144 c 0,56,57
 795 144 795 144 799 145 c 0,58,59
 814 149 814 149 813 167 c 0,60,61
 813 266 813 266 813 538 c 256,62,63
 813 810 813 810 813 908 c 0,64,65
 812 924 812 924 807 929 c 0,66,67
 804 932 804 932 800 933 c 0,68,69
 797 934 797 934 793 934 c 0,70,71
 790 935 790 935 786 935 c 0,72,73
 783 935 783 935 779 935 c 0,74,75
 616 935 616 935 45 935 c 0,76,77
 39 935 39 935 33 933 c 0,42,43
126 753 m 1,78,79
 157 758 157 758 171 745 c 0,80,81
 190 733 190 733 193 707 c 0,82,83
 195 682 195 682 179 666 c 0,84,85
 159 644 159 644 124 652 c 1,86,87
 95 664 95 664 91 689 c 0,88,89
 88 715 88 715 96 729 c 0,90,91
 103 744 103 744 126 753 c 1,78,79
260 754 m 1,92,93
 617 754 617 754 747 754 c 1,94,95
 747 704 747 704 747 653 c 1,96,97
 585 653 585 653 260 653 c 1,98,99
 260 687 260 687 260 754 c 1,92,93
103 581 m 0,100,101
 116 594 116 594 142 597 c 0,102,103
 160 596 160 596 178 582 c 0,104,105
 193 567 193 567 193 545 c 256,106,107
 193 523 193 523 179 508 c 0,108,109
 167 495 167 495 149 492 c 256,110,111
 131 489 131 489 116 498 c 0,112,113
 94 509 94 509 90 536 c 256,114,115
 86 563 86 563 103 581 c 0,100,101
260 594 m 1,116,117
 585 594 585 594 747 594 c 1,118,119
 747 544 747 544 747 494 c 1,120,121
 422 494 422 494 260 494 c 1,122,123
 260 544 260 544 260 594 c 1,116,117
120 421 m 0,124,125
 135 428 135 428 152 425 c 0,126,127
 169 421 169 421 180 408 c 0,128,129
 195 393 195 393 193 370 c 0,130,131
 191 346 191 346 174 333 c 0,132,133
 156 316 156 316 129 323 c 0,134,135
 101 329 101 329 93 353 c 0,136,137
 82 386 82 386 101 407 c 0,138,139
 106 414 106 414 120 421 c 0,124,125
260 425 m 1,140,141
 422 425 422 425 747 425 c 1,142,143
 747 373 747 373 747 322 c 1,144,145
 585 322 585 322 260 322 c 1,146,147
 260 356 260 356 260 425 c 1,140,141
7 164 m 1,148,149
 7 155 7 155 7 129 c 1,150,151
 15 129 15 129 38 129 c 1,152,153
 30 130 30 130 23 135 c 256,154,155
 16 140 16 140 11 147 c 0,156,157
 7 155 7 155 7 164 c 1,148,149
796 129 m 1,158,159
 804 129 804 129 828 129 c 1,160,161
 828 137 828 137 828 162 c 1,162,163
 826 149 826 149 817 140 c 256,164,165
 808 131 808 131 796 129 c 1,158,159
595 97 m 1,166,167
 651 154 651 154 819 323 c 1,168,169
 847 295 847 295 931 210 c 1,170,171
 875 153 875 153 706 -16 c 1,172,173
 669 -26 669 -26 557 -54 c 1,174,175
 566 -16 566 -16 595 97 c 1,166,167
987 374 m 0,176,177
 1006 349 1006 349 1009 329 c 0,178,179
 1010 325 1010 325 1010 321 c 0,180,181
 1010 304 1010 304 999 289 c 0,182,183
 992 279 992 279 979 259 c 0,184,185
 976 256 976 256 968 248 c 1,186,187
 940 276 940 276 856 361 c 1,188,189
 859 364 859 364 868 371 c 0,190,191
 880 382 880 382 899 390 c 256,192,193
 918 398 918 398 941 397 c 0,194,195
 965 397 965 397 987 374 c 0,176,177
EndSplineSet
Validated: 37
EndChar

StartChar: unie615
Encoding: 58901 58901 25
Width: 1024
Flags: W
LayerCount: 2
Fore
SplineSet
499 919 m 0,0,1
 558 936 558 936 672 936 c 0,2,3
 688 936 688 936 706 936 c 0,4,5
 773 933 773 933 815 898 c 0,6,7
 839 877 839 877 847 862 c 0,8,9
 862 840 862 840 869 804 c 0,10,11
 870 799 870 799 870 786 c 0,12,13
 871 773 871 773 872 766 c 0,14,15
 873 763 873 763 877 758 c 0,16,17
 880 753 880 753 881 752 c 0,18,19
 912 704 912 704 904 647 c 0,20,21
 903 643 903 643 910 629 c 0,22,23
 933 580 933 580 921 520 c 1,24,25
 939 487 939 487 943 468 c 0,26,27
 948 447 948 447 948 427 c 0,28,29
 948 396 948 396 935 368 c 0,30,31
 918 331 918 331 884 307 c 0,32,33
 850 284 850 284 810 283 c 0,34,35
 792 283 792 283 703 283 c 1,36,37
 730 220 730 220 729 176 c 0,38,39
 728 138 728 138 727 133 c 0,40,41
 724 84 724 84 698 48 c 0,42,43
 688 36 688 36 673 23 c 0,44,45
 631 -8 631 -8 568 -9 c 0,46,47
 538 -8 538 -8 519 10 c 0,48,49
 480 45 480 45 470 114 c 0,50,51
 463 156 463 156 453 180 c 0,52,53
 448 189 448 189 435 202 c 0,54,55
 423 216 423 216 421 219 c 0,56,57
 406 236 406 236 379 271 c 0,58,59
 352 305 352 305 339 320 c 0,60,61
 336 324 336 324 329 332 c 256,62,63
 322 340 322 340 316 345 c 0,64,65
 310 351 310 351 303 356 c 1,66,67
 285 355 285 355 226 355 c 0,68,69
 167 356 167 356 148 355 c 0,70,71
 111 353 111 353 88 388 c 0,72,73
 76 405 76 405 76 432 c 0,74,75
 76 434 76 434 76 436 c 0,76,77
 76 476 76 476 76 613 c 0,78,79
 76 749 76 749 76 788 c 0,80,81
 76 823 76 823 98 843 c 0,82,83
 119 864 119 864 148 864 c 0,84,85
 173 864 173 864 216 864 c 256,86,87
 259 864 259 864 284 864 c 0,88,89
 321 864 321 864 329 867 c 0,90,91
 351 873 351 873 408 892 c 0,92,93
 466 911 466 911 499 919 c 0,0,1
519 850 m 0,94,95
 462 836 462 836 410 816 c 0,96,97
 407 815 407 815 395 811 c 0,98,99
 384 807 384 807 381 806 c 0,100,101
 379 806 379 806 367 802 c 0,102,103
 356 798 356 798 353 798 c 256,104,105
 350 798 350 798 338 795 c 0,106,107
 327 792 327 792 324 792 c 0,108,109
 321 793 321 793 309 791 c 256,110,111
 297 789 297 789 294 791 c 1,112,113
 294 670 294 670 294 428 c 1,114,115
 316 428 316 428 325 425 c 0,116,117
 343 419 343 419 370 393 c 0,118,119
 387 377 387 377 430 323 c 0,120,121
 450 296 450 296 490 249 c 0,122,123
 519 220 519 220 530 174 c 0,124,125
 537 150 537 150 544 114 c 0,126,127
 552 79 552 79 566 64 c 1,128,129
 614 63 614 63 635 85 c 0,130,131
 650 104 650 104 656 141 c 0,132,133
 658 174 658 174 656 193 c 0,134,135
 651 216 651 216 628 269 c 256,136,137
 605 322 605 322 603 354 c 1,138,139
 608 355 608 355 612 355 c 0,140,141
 644 355 644 355 700 355 c 0,142,143
 757 355 757 355 789 355 c 0,144,145
 821 354 821 354 836 364 c 0,146,147
 866 380 866 380 875 414 c 0,148,149
 876 428 876 428 875 440 c 0,150,151
 864 483 864 483 843 499 c 1,152,153
 836 499 836 499 833 500 c 1,154,155
 845 515 845 515 851 542 c 0,156,157
 856 565 856 565 848 588 c 256,158,159
 840 611 840 611 823 626 c 1,160,161
 826 632 826 632 828 635 c 0,162,163
 835 662 835 662 833 675 c 0,164,165
 826 713 826 713 804 733 c 0,166,167
 800 735 800 735 797 736 c 0,168,169
 797 741 797 741 798 746 c 0,170,171
 798 752 798 752 798 758 c 0,172,173
 799 764 799 764 799 768 c 0,174,175
 797 800 797 800 790 816 c 0,176,177
 786 824 786 824 773 839 c 0,178,179
 759 851 759 851 739 858 c 0,180,181
 711 864 711 864 701 864 c 0,182,183
 657 864 657 864 601 864 c 1,184,185
 560 860 560 860 519 850 c 0,94,95
176 791 m 1,186,187
 160 783 160 783 155 776 c 0,188,189
 144 760 144 760 150 744 c 0,190,191
 156 726 156 726 175 720 c 0,192,193
 194 713 194 713 210 730 c 0,194,195
 227 746 227 746 220 765 c 0,196,197
 216 781 216 781 194 791 c 0,198,199
 185 791 185 791 176 791 c 1,186,187
EndSplineSet
Validated: 33
EndChar

StartChar: unie616
Encoding: 58902 58902 26
Width: 1024
Flags: W
LayerCount: 2
Fore
SplineSet
516 877 m 0,0,1
 535 898 535 898 566 898 c 0,2,3
 571 898 571 898 576 897 c 0,4,5
 640 892 640 892 676 859 c 0,6,7
 717 822 717 822 721 745 c 0,8,9
 721 697 721 697 717 683 c 0,10,11
 714 662 714 662 695 617 c 1,12,13
 714 617 714 617 750 617 c 0,14,15
 785 617 785 617 804 617 c 0,16,17
 853 613 853 613 890 575 c 0,18,19
 928 537 928 537 931 487 c 0,20,21
 931 483 931 483 931 479 c 0,22,23
 931 441 931 441 914 407 c 0,24,25
 913 405 913 405 910 401 c 0,26,27
 907 396 907 396 906 392 c 256,28,29
 905 388 905 388 905 384 c 0,30,31
 916 337 916 337 896 289 c 0,32,33
 896 287 896 287 894 282 c 0,34,35
 891 278 891 278 889 274 c 0,36,37
 888 270 888 270 889 267 c 0,38,39
 895 222 895 222 874 180 c 0,40,41
 869 168 869 168 858 153 c 0,42,43
 858 148 858 148 857 137 c 256,44,45
 856 126 856 126 855 118 c 256,46,47
 854 110 854 110 852 103 c 0,48,49
 844 71 844 71 823 45 c 0,50,51
 802 20 802 20 772 7 c 0,52,53
 735 -11 735 -11 682 -11 c 0,54,55
 679 -11 679 -11 676 -11 c 0,56,57
 666 -11 666 -11 647 -11 c 0,58,59
 629 -11 629 -11 617 -11 c 256,60,61
 605 -11 605 -11 589 -10 c 256,62,63
 573 -9 573 -9 559 -7 c 0,64,65
 524 -2 524 -2 485 9 c 0,66,67
 445 20 445 20 399 35 c 0,68,69
 353 51 353 51 327 58 c 0,70,71
 315 59 315 59 255 59 c 256,72,73
 195 59 195 59 183 59 c 0,74,75
 152 59 152 59 143 62 c 0,76,77
 113 70 113 70 99 100 c 0,78,79
 93 113 93 113 93 134 c 0,80,81
 93 396 93 396 93 472 c 0,82,83
 93 496 93 496 103 513 c 0,84,85
 122 543 122 543 152 547 c 0,86,87
 158 547 158 547 171 547 c 256,88,89
 184 547 184 547 189 547 c 0,90,91
 205 546 205 546 224 547 c 0,92,93
 232 547 232 547 241 547 c 0,94,95
 274 547 274 547 282 547 c 0,96,97
 285 548 285 548 296 547 c 0,98,99
 308 546 308 546 311 548 c 0,100,101
 315 550 315 550 328 561 c 0,102,103
 348 583 348 583 385 629 c 0,104,105
 421 676 421 676 441 697 c 0,106,107
 458 714 458 714 466 753 c 0,108,109
 476 796 476 796 478 804 c 0,110,111
 489 852 489 852 516 877 c 0,0,1
564 827 m 0,112,113
 560 823 560 823 557 817 c 0,114,115
 553 811 553 811 551 806 c 0,116,117
 549 802 549 802 547 794 c 0,118,119
 545 787 545 787 544 783 c 256,120,121
 543 779 543 779 541 770 c 256,122,123
 539 761 539 761 539 759 c 0,124,125
 538 755 538 755 534 741 c 0,126,127
 531 727 531 727 529 722 c 0,128,129
 528 717 528 717 525 706 c 0,130,131
 521 694 521 694 518 687 c 0,132,133
 515 681 515 681 510 673 c 0,134,135
 504 664 504 664 498 657 c 0,136,137
 477 634 477 634 442 590 c 0,138,139
 407 545 407 545 397 533 c 0,140,141
 362 497 362 497 345 486 c 0,142,143
 331 477 331 477 302 478 c 1,144,145
 302 362 302 362 302 129 c 1,146,147
 337 130 337 130 375 117 c 0,148,149
 391 112 391 112 421 102 c 0,150,151
 451 91 451 91 457 89 c 0,152,153
 566 57 566 57 631 59 c 0,154,155
 639 59 639 59 655 59 c 256,156,157
 671 59 671 59 681 59 c 256,158,159
 691 59 691 59 705 60 c 0,160,161
 718 61 718 61 730 64 c 0,162,163
 749 71 749 71 763 82 c 0,164,165
 778 99 778 99 784 117 c 0,166,167
 786 124 786 124 787 137 c 0,168,169
 788 149 788 149 788 151 c 0,170,171
 786 175 786 175 786 181 c 1,172,173
 812 195 812 195 821 240 c 0,174,175
 823 254 823 254 816 278 c 0,176,177
 814 281 814 281 811 287 c 1,178,179
 819 294 819 294 833 317 c 1,180,181
 842 343 842 343 838 368 c 0,182,183
 831 396 831 396 821 408 c 1,184,185
 836 409 836 409 846 427 c 0,186,187
 864 459 864 459 861 491 c 0,188,189
 855 515 855 515 835 531 c 0,190,191
 815 548 815 548 791 548 c 0,192,193
 774 548 774 548 708 548 c 0,194,195
 641 548 641 548 623 548 c 0,196,197
 601 548 601 548 600 549 c 0,198,199
 602 579 602 579 613 603 c 0,200,201
 613 604 613 604 614 608 c 0,202,203
 645 680 645 680 650 703 c 0,204,205
 655 772 655 772 633 804 c 0,206,207
 613 828 613 828 564 827 c 0,112,113
184 196 m 0,208,209
 172 190 172 190 165 178 c 0,210,211
 160 163 160 163 165 152 c 0,212,213
 169 138 169 138 189 129 c 0,214,215
 197 129 197 129 207 129 c 1,216,217
 226 138 226 138 231 152 c 0,218,219
 237 166 237 166 227 183 c 0,220,221
 221 190 221 190 212 196 c 0,222,223
 198 202 198 202 184 196 c 0,208,209
EndSplineSet
Validated: 33
EndChar

StartChar: unie617
Encoding: 58903 58903 27
Width: 1024
Flags: W
LayerCount: 2
Fore
SplineSet
0 960 m 1,0,1
 0 948 0 948 0 914 c 1,2,3
 1 932 1 932 13 945 c 256,4,5
 25 958 25 958 42 960 c 1,6,7
 28 960 28 960 0 960 c 1,0,1
42 960 m 0,8,9
 277 960 277 960 982 960 c 0,10,11
 999 958 999 958 1010 946 c 0,12,13
 1022 933 1022 933 1024 916 c 0,14,15
 1024 604 1024 604 1024 -21 c 0,16,17
 1022 -38 1022 -38 1010 -50 c 256,18,19
 998 -62 998 -62 982 -64 c 0,20,21
 669 -64 669 -64 42 -64 c 0,22,23
 24 -62 24 -62 13 -49 c 0,24,25
 1 -36 1 -36 0 -18 c 0,26,27
 0 293 0 293 0 914 c 0,28,29
 1 932 1 932 13 945 c 256,30,31
 25 958 25 958 42 960 c 0,8,9
982 960 m 1,32,33
 999 958 999 958 1010 946 c 0,34,35
 1022 933 1022 933 1024 916 c 1,36,37
 1024 931 1024 931 1024 960 c 1,38,39
 1014 960 1014 960 982 960 c 1,32,33
34 938 m 0,40,41
 17 931 17 931 19 908 c 0,42,43
 19 366 19 366 19 4 c 0,44,45
 19 1 19 1 19 -6 c 0,46,47
 19 -14 19 -14 19 -18 c 256,48,49
 19 -22 19 -22 21 -28 c 0,50,51
 23 -33 23 -33 27 -37 c 0,52,53
 30 -41 30 -41 35 -43 c 256,54,55
 40 -45 40 -45 44 -45 c 256,56,57
 48 -45 48 -45 55 -45 c 256,58,59
 62 -45 62 -45 64 -45 c 0,60,61
 233 -45 233 -45 521 -45 c 0,62,63
 808 -45 808 -45 976 -45 c 0,64,65
 988 -46 988 -46 997 -37 c 256,66,67
 1006 -28 1006 -28 1005 -16 c 0,68,69
 1005 448 1005 448 1005 912 c 0,70,71
 1006 924 1006 924 997 933 c 256,72,73
 988 942 988 942 976 941 c 0,74,75
 853 941 853 941 514 941 c 256,76,77
 175 941 175 941 52 941 c 0,78,79
 38 941 38 941 34 938 c 0,40,41
0 -18 m 1,80,81
 0 -29 0 -29 0 -64 c 1,82,83
 10 -64 10 -64 42 -64 c 1,84,85
 24 -62 24 -62 13 -49 c 0,86,87
 1 -36 1 -36 0 -18 c 1,80,81
982 -64 m 1,88,89
 993 -64 993 -64 1024 -64 c 1,90,91
 1024 -53 1024 -53 1024 -21 c 1,92,93
 1022 -38 1022 -38 1010 -50 c 256,94,95
 998 -62 998 -62 982 -64 c 1,88,89
211 323 m 1,96,97
 298 411 298 411 559 675 c 1,98,99
 603 631 603 631 734 499 c 1,100,101
 647 411 647 411 385 147 c 1,102,103
 327 133 327 133 153 89 c 1,104,105
 168 148 168 148 211 323 c 1,96,97
821 754 m 1,106,107
 851 714 851 714 854 685 c 0,108,109
 859 648 859 648 840 621 c 0,110,111
 821 589 821 589 809 575 c 0,112,113
 803 569 803 569 792 557 c 1,114,115
 748 601 748 601 617 733 c 1,116,117
 622 737 622 737 636 750 c 0,118,119
 655 766 655 766 684 778 c 0,120,121
 714 791 714 791 750 790 c 256,122,123
 786 789 786 789 821 754 c 1,106,107
EndSplineSet
Validated: 37
EndChar

StartChar: unie650
Encoding: 58960 58960 28
Width: 1024
Flags: W
LayerCount: 2
Fore
SplineSet
918 731 m 1,0,1
 901 754 901 754 878 779 c 0,2,3
 856 805 856 805 831 831 c 0,4,5
 805 856 805 856 779 878 c 0,6,7
 754 901 754 901 731 918 c 0,8,9
 692 946 692 946 671 953 c 0,10,11
 651 960 651 960 640 960 c 0,12,13
 475 960 475 960 144 960 c 0,14,15
 111 960 111 960 87 937 c 0,16,17
 64 913 64 913 64 880 c 0,18,19
 64 592 64 592 64 16 c 0,20,21
 64 -17 64 -17 87 -41 c 0,22,23
 111 -64 111 -64 144 -64 c 0,24,25
 389 -64 389 -64 880 -64 c 0,26,27
 913 -64 913 -64 937 -41 c 0,28,29
 960 -17 960 -17 960 16 c 0,30,31
 960 224 960 224 960 640 c 0,32,33
 960 651 960 651 953 671 c 0,34,35
 946 692 946 692 918 731 c 1,36,37
 918 731 918 731 918 731 c 1,0,1
785 785 m 256,38,39
 808 762 808 762 826 742 c 0,40,41
 845 721 845 721 858 704 c 1,42,43
 807 704 807 704 704 704 c 1,44,45
 704 742 704 742 704 858 c 1,46,47
 721 845 721 845 742 826 c 0,48,49
 762 808 762 808 785 785 c 256,38,39
896 16 m 0,50,51
 896 9 896 9 891 5 c 0,52,53
 887 0 887 0 880 0 c 0,54,55
 635 0 635 0 144 0 c 0,56,57
 137 0 137 0 133 5 c 0,58,59
 128 9 128 9 128 16 c 0,60,61
 128 304 128 304 128 880 c 0,62,63
 128 887 128 887 133 891 c 0,64,65
 137 896 137 896 144 896 c 2,66,67
 144 896 144 896 222 896 c 0,68,69
 299 896 299 896 392 896 c 256,70,71
 485 896 485 896 562 896 c 0,72,73
 640 896 640 896 640 896 c 1,74,75
 640 821 640 821 640 672 c 0,76,77
 640 659 640 659 650 650 c 0,78,79
 659 640 659 640 672 640 c 0,80,81
 747 640 747 640 896 640 c 1,82,83
 896 484 896 484 896 16 c 0,50,51
EndSplineSet
Validated: 9
EndChar

StartChar: unie651
Encoding: 58961 58961 29
Width: 1120
Flags: W
LayerCount: 2
Fore
SplineSet
890 914 m 1,0,1
 714 914 714 914 187 914 c 0,2,3
 156 914 156 914 135 892 c 0,4,5
 113 870 113 870 113 839 c 0,6,7
 113 578 113 578 113 57 c 0,8,9
 113 26 113 26 135 4 c 0,10,11
 156 -18 156 -18 187 -18 c 0,12,13
 448 -18 448 -18 970 -18 c 0,14,15
 1001 -18 1001 -18 1023 4 c 256,16,17
 1045 26 1045 26 1045 57 c 0,18,19
 1045 291 1045 291 1045 758 c 1,20,21
 1006 797 1006 797 890 914 c 1,22,23
 890 914 890 914 890 914 c 1,0,1
820 464 m 1,24,25
 820 444 820 444 806 430 c 256,26,27
 792 416 792 416 772 416 c 0,28,29
 622 416 622 416 321 416 c 0,30,31
 301 416 301 416 287 430 c 256,32,33
 273 444 273 444 273 464 c 0,34,35
 273 590 273 590 273 841 c 1,36,37
 332 841 332 841 510 841 c 1,38,39
 510 760 510 760 510 517 c 1,40,41
 556 517 556 517 695 517 c 1,42,43
 695 598 695 598 695 841 c 1,44,45
 726 841 726 841 820 841 c 1,46,47
 820 747 820 747 820 464 c 1,48,49
 820 464 820 464 820 464 c 1,24,25
EndSplineSet
Validated: 5
EndChar

StartChar: unie652
Encoding: 58962 58962 30
Width: 1024
Flags: W
LayerCount: 2
Fore
SplineSet
73 61 m 1,0,1
 73 249 73 249 73 814 c 1,2,3
 152 814 152 814 387 814 c 1,4,5
 403 783 403 783 449 688 c 1,6,7
 543 688 543 688 825 688 c 1,8,9
 825 657 825 657 825 563 c 1,10,11
 667 563 667 563 191 563 c 1,12,13
 161 438 161 438 73 61 c 1,0,1
136 61 m 1,14,15
 167 171 167 171 261 500 c 1,16,17
 433 500 433 500 951 500 c 1,18,19
 919 390 919 390 825 61 c 1,20,21
 653 61 653 61 136 61 c 1,14,15
EndSplineSet
Validated: 1
EndChar

StartChar: unie653
Encoding: 58963 58963 31
Width: 1024
Flags: W
LayerCount: 2
Fore
SplineSet
647 786 m 1,0,1
 647 820 647 820 647 922 c 1,2,3
 546 922 546 922 242 922 c 1,4,5
 191 871 191 871 39 719 c 1,6,7
 39 583 39 583 39 176 c 1,8,9
 123 176 123 176 377 176 c 1,10,11
 377 142 377 142 377 40 c 1,12,13
 529 40 529 40 985 40 c 1,14,15
 985 226 985 226 985 786 c 1,16,17
 901 786 901 786 647 786 c 1,0,1
377 243 m 1,18,19
 310 243 310 243 107 243 c 1,20,21
 107 345 107 345 107 651 c 1,22,23
 158 651 158 651 309 651 c 1,24,25
 309 702 309 702 309 854 c 1,26,27
 377 854 377 854 580 854 c 1,28,29
 580 837 580 837 580 786 c 1,30,31
 529 735 529 735 377 583 c 1,32,33
 377 498 377 498 377 243 c 1,34,35
 377 243 377 243 377 243 c 1,18,19
917 108 m 1,36,37
 799 108 799 108 444 108 c 1,38,39
 444 210 444 210 444 515 c 1,40,41
 495 515 495 515 647 515 c 1,42,43
 647 566 647 566 647 719 c 1,44,45
 714 719 714 719 917 719 c 1,46,47
 917 566 917 566 917 108 c 1,48,49
 917 108 917 108 917 108 c 1,36,37
EndSplineSet
Validated: 5
EndChar

StartChar: unie654
Encoding: 58964 58964 32
Width: 1024
Flags: W
LayerCount: 2
Fore
SplineSet
914 280 m 256,0,1
 889 319 889 319 857 347 c 0,2,3
 824 375 824 375 789 388 c 0,4,5
 754 402 754 402 720 402 c 0,6,7
 686 401 686 401 658 383 c 0,8,9
 653 380 653 380 649 377 c 0,10,11
 645 373 645 373 641 369 c 1,12,13
 614 410 614 410 561 493 c 1,14,15
 607 565 607 565 745 781 c 0,16,17
 756 802 756 802 759 826 c 0,18,19
 763 850 763 850 758 875 c 0,20,21
 753 899 753 899 740 918 c 0,22,23
 727 938 727 938 710 952 c 0,24,25
 706 955 706 955 697 960 c 1,26,27
 643 875 643 875 480 620 c 1,28,29
 426 705 426 705 263 960 c 1,30,31
 260 958 260 958 250 952 c 0,32,33
 233 938 233 938 220 918 c 0,34,35
 207 899 207 899 202 875 c 0,36,37
 197 850 197 850 201 826 c 0,38,39
 204 802 204 802 215 781 c 0,40,41
 276 685 276 685 399 493 c 1,42,43
 379 462 379 462 319 369 c 1,44,45
 315 373 315 373 311 377 c 0,46,47
 307 380 307 380 302 383 c 0,48,49
 274 401 274 401 240 402 c 0,50,51
 206 402 206 402 171 388 c 0,52,53
 136 375 136 375 103 347 c 0,54,55
 71 319 71 319 46 280 c 256,56,57
 21 241 21 241 10 200 c 0,58,59
 0 165 0 165 0 133 c 0,60,61
 0 127 0 127 0 121 c 0,62,63
 2 84 2 84 17 53 c 0,64,65
 32 23 32 23 60 5 c 0,66,67
 88 -12 88 -12 122 -13 c 256,68,69
 156 -14 156 -14 191 0 c 256,70,71
 226 14 226 14 258 42 c 0,72,73
 291 69 291 69 316 108 c 0,74,75
 371 194 371 194 480 366 c 1,76,77
 521 302 521 302 644 108 c 0,78,79
 669 69 669 69 702 42 c 0,80,81
 734 14 734 14 769 0 c 0,82,83
 801 -13 801 -13 833 -13 c 0,84,85
 835 -13 835 -13 838 -13 c 0,86,87
 872 -12 872 -12 900 5 c 0,88,89
 928 23 928 23 943 53 c 0,90,91
 958 84 958 84 960 121 c 0,92,93
 960 127 960 127 960 133 c 0,94,95
 960 165 960 165 950 200 c 0,96,97
 939 241 939 241 914 280 c 256,0,1
235 160 m 1,98,99
 212 124 212 124 186 106 c 256,100,101
 160 88 160 88 140 84 c 1,102,103
 140 84 140 84 140 84 c 257,104,105
 140 84 140 84 140 84 c 1,106,107
 134 83 134 83 126 82 c 0,108,109
 118 82 118 82 112 86 c 0,110,111
 105 91 105 91 101 102 c 0,112,113
 97 112 97 112 96 127 c 0,114,115
 95 150 95 150 103 177 c 256,116,117
 111 204 111 204 127 229 c 0,118,119
 150 264 150 264 176 282 c 256,120,121
 202 300 202 300 222 304 c 0,122,123
 228 305 228 305 236 306 c 0,124,125
 244 306 244 306 250 302 c 0,126,127
 257 298 257 298 261 287 c 256,128,129
 265 276 265 276 266 262 c 0,130,131
 267 238 267 238 259 211 c 256,132,133
 251 184 251 184 235 160 c 1,134,135
 235 160 235 160 235 160 c 1,98,99
480 448 m 256,136,137
 467 448 467 448 458 458 c 0,138,139
 448 467 448 467 448 480 c 256,140,141
 448 493 448 493 458 502 c 0,142,143
 467 512 467 512 480 512 c 256,144,145
 493 512 493 512 502 502 c 0,146,147
 512 493 512 493 512 480 c 256,148,149
 512 467 512 467 502 458 c 0,150,151
 493 448 493 448 480 448 c 256,136,137
864 127 m 1,152,153
 863 112 863 112 859 102 c 0,154,155
 855 91 855 91 848 86 c 0,156,157
 842 82 842 82 834 82 c 0,158,159
 826 83 826 83 820 84 c 1,160,161
 820 84 820 84 820 84 c 257,162,163
 820 84 820 84 820 84 c 1,164,165
 800 88 800 88 774 106 c 256,166,167
 748 124 748 124 725 160 c 0,168,169
 709 184 709 184 701 211 c 256,170,171
 693 238 693 238 694 262 c 0,172,173
 695 276 695 276 699 287 c 256,174,175
 703 298 703 298 710 302 c 0,176,177
 716 306 716 306 724 306 c 0,178,179
 732 305 732 305 738 304 c 0,180,181
 758 300 758 300 784 282 c 256,182,183
 810 264 810 264 833 229 c 0,184,185
 849 204 849 204 857 177 c 256,186,187
 865 150 865 150 864 127 c 1,188,189
 864 127 864 127 864 127 c 1,152,153
EndSplineSet
Validated: 41
EndChar

StartChar: unie655
Encoding: 58965 58965 33
Width: 1024
Flags: W
LayerCount: 2
Fore
SplineSet
704 832 m 1,0,1
 672 832 672 832 576 832 c 1,2,3
 576 848 576 848 576 896 c 0,4,5
 576 922 576 922 557 941 c 256,6,7
 538 960 538 960 512 960 c 0,8,9
 469 960 469 960 384 960 c 0,10,11
 358 960 358 960 339 941 c 256,12,13
 320 922 320 922 320 896 c 0,14,15
 320 875 320 875 320 832 c 1,16,17
 288 832 288 832 192 832 c 1,18,19
 192 800 192 800 192 704 c 1,20,21
 320 704 320 704 704 704 c 1,22,23
 704 736 704 736 704 832 c 1,0,1
512 832 m 1,24,25
 480 832 480 832 384 832 c 1,26,27
 384 848 384 848 384 896 c 1,28,29
 384 896 384 896 384 896 c 257,30,31
 384 896 384 896 384 896 c 1,32,33
 427 896 427 896 512 896 c 1,34,35
 512 896 512 896 512 896 c 257,36,37
 512 896 512 896 512 896 c 1,38,39
 512 875 512 875 512 832 c 1,40,41
 512 832 512 832 512 832 c 1,24,25
832 640 m 1,42,43
 832 680 832 680 832 800 c 0,44,45
 832 813 832 813 822 822 c 0,46,47
 813 832 813 832 800 832 c 0,48,49
 779 832 779 832 736 832 c 1,50,51
 736 816 736 816 736 768 c 1,52,53
 744 768 744 768 768 768 c 1,54,55
 768 736 768 736 768 640 c 1,56,57
 720 640 720 640 576 640 c 1,58,59
 528 592 528 592 384 448 c 1,60,61
 384 384 384 384 384 192 c 1,62,63
 320 192 320 192 128 192 c 1,64,65
 128 336 128 336 128 768 c 1,66,67
 136 768 136 768 160 768 c 1,68,69
 160 784 160 784 160 832 c 1,70,71
 144 832 144 832 96 832 c 0,72,73
 83 832 83 832 74 822 c 0,74,75
 64 813 64 813 64 800 c 0,76,77
 64 587 64 587 64 160 c 0,78,79
 64 147 64 147 74 138 c 0,80,81
 83 128 83 128 96 128 c 0,82,83
 192 128 192 128 384 128 c 1,84,85
 384 80 384 80 384 -64 c 1,86,87
 544 -64 544 -64 1024 -64 c 1,88,89
 1024 112 1024 112 1024 640 c 1,90,91
 976 640 976 640 832 640 c 1,42,43
576 549 m 1,92,93
 576 524 576 524 576 448 c 1,94,95
 551 448 551 448 475 448 c 1,96,97
 500 473 500 473 576 549 c 1,92,93
960 0 m 1,98,99
 832 0 832 0 448 0 c 1,100,101
 448 96 448 96 448 384 c 1,102,103
 496 384 496 384 640 384 c 1,104,105
 640 432 640 432 640 576 c 1,106,107
 720 576 720 576 960 576 c 1,108,109
 960 432 960 432 960 0 c 1,98,99
EndSplineSet
Validated: 5
EndChar

StartChar: unie656
Encoding: 58966 58966 34
Width: 1024
Flags: W
LayerCount: 2
Fore
SplineSet
298 -25 m 257,0,1
 298 -25 298 -25 284 10 c 256,2,3
 270 45 270 45 260 95 c 0,4,5
 250 146 250 146 253 202 c 256,6,7
 256 258 256 258 290 301 c 0,8,9
 318 335 318 335 358 352 c 256,10,11
 398 369 398 369 440 374 c 0,12,13
 482 380 482 380 519 378 c 0,14,15
 557 376 557 376 579 373 c 1,16,17
 579 305 579 305 579 168 c 1,18,19
 664 254 664 254 918 510 c 1,20,21
 833 613 833 613 579 921 c 1,22,23
 579 870 579 870 579 717 c 1,24,25
 551 719 551 719 494 718 c 0,26,27
 437 716 437 716 373 701 c 0,28,29
 309 687 309 687 249 654 c 0,30,31
 188 622 188 622 151 560 c 0,32,33
 117 503 117 503 110 436 c 0,34,35
 107 416 107 416 107 396 c 0,36,37
 107 347 107 347 120 295 c 0,38,39
 138 221 138 221 182 141 c 0,40,41
 227 60 227 60 298 -25 c 1,42,43
 298 -25 298 -25 298 -25 c 257,0,1
EndSplineSet
Validated: 37
EndChar

StartChar: unie657
Encoding: 58967 58967 35
Width: 1024
Flags: W
LayerCount: 2
Fore
SplineSet
875 560 m 0,0,1
 838 622 838 622 778 655 c 0,2,3
 717 688 717 688 653 702 c 0,4,5
 589 717 589 717 533 718 c 0,6,7
 476 719 476 719 447 717 c 1,8,9
 447 785 447 785 447 921 c 1,10,11
 362 818 362 818 108 510 c 1,12,13
 193 425 193 425 447 168 c 1,14,15
 447 219 447 219 447 373 c 1,16,17
 469 376 469 376 506 378 c 0,18,19
 544 380 544 380 585 374 c 0,20,21
 627 369 627 369 667 352 c 0,22,23
 708 335 708 335 736 301 c 0,24,25
 770 258 770 258 773 202 c 256,26,27
 776 146 776 146 766 95 c 0,28,29
 757 45 757 45 743 10 c 256,30,31
 729 -25 729 -25 729 -25 c 1,32,33
 799 60 799 60 843 141 c 0,34,35
 888 221 888 221 906 295 c 0,36,37
 919 347 919 347 919 396 c 0,38,39
 919 416 919 416 917 436 c 0,40,41
 909 503 909 503 875 560 c 0,0,1
EndSplineSet
Validated: 41
EndChar

StartChar: unie660
Encoding: 58976 58976 36
Width: 1024
Flags: W
LayerCount: 2
Fore
SplineSet
512 960 m 256,0,1
 406 960 406 960 313 920 c 0,2,3
 219 880 219 880 149 810 c 0,4,5
 80 741 80 741 40 647 c 0,6,7
 0 554 0 554 0 448 c 256,8,9
 0 342 0 342 40 249 c 0,10,11
 80 155 80 155 149 85 c 0,12,13
 219 16 219 16 313 -24 c 0,14,15
 406 -64 406 -64 512 -64 c 256,16,17
 618 -64 618 -64 711 -24 c 0,18,19
 805 16 805 16 874 85 c 0,20,21
 944 155 944 155 984 249 c 0,22,23
 1024 342 1024 342 1024 448 c 256,24,25
 1024 554 1024 554 984 647 c 0,26,27
 944 741 944 741 874 810 c 0,28,29
 805 880 805 880 711 920 c 0,30,31
 618 960 618 960 512 960 c 256,0,1
512 32 m 256,32,33
 426 32 426 32 350 65 c 0,34,35
 274 97 274 97 217 153 c 0,36,37
 161 210 161 210 129 286 c 0,38,39
 96 362 96 362 96 448 c 256,40,41
 96 534 96 534 129 610 c 0,42,43
 161 686 161 686 217 742 c 0,44,45
 274 799 274 799 350 831 c 0,46,47
 426 864 426 864 512 864 c 256,48,49
 598 864 598 864 674 831 c 0,50,51
 750 799 750 799 806 742 c 0,52,53
 863 686 863 686 895 610 c 0,54,55
 928 534 928 534 928 448 c 256,56,57
 928 362 928 362 895 286 c 0,58,59
 863 210 863 210 806 153 c 0,60,61
 750 97 750 97 674 65 c 0,62,63
 598 32 598 32 512 32 c 256,32,33
672 704 m 1,64,65
 632 664 632 664 512 544 c 1,66,67
 472 584 472 584 352 704 c 1,68,69
 328 680 328 680 256 608 c 1,70,71
 296 568 296 568 416 448 c 1,72,73
 376 408 376 408 256 288 c 1,74,75
 280 264 280 264 352 192 c 1,76,77
 392 232 392 232 512 352 c 1,78,79
 552 312 552 312 672 192 c 1,80,81
 696 216 696 216 768 288 c 1,82,83
 728 328 728 328 608 448 c 1,84,85
 648 488 648 488 768 608 c 1,86,87
 744 632 744 632 672 704 c 1,64,65
EndSplineSet
Validated: 9
EndChar

StartChar: unie661
Encoding: 58977 58977 37
Width: 1024
Flags: W
LayerCount: 2
Fore
SplineSet
128 640 m 1,0,1
 128 480 128 480 128 0 c 0,2,3
 128 -26 128 -26 147 -45 c 256,4,5
 166 -64 166 -64 192 -64 c 0,6,7
 384 -64 384 -64 768 -64 c 0,8,9
 794 -64 794 -64 813 -45 c 256,10,11
 832 -26 832 -26 832 0 c 0,12,13
 832 213 832 213 832 640 c 1,14,15
 656 640 656 640 128 640 c 1,0,1
320 64 m 1,16,17
 304 64 304 64 256 64 c 1,18,19
 256 176 256 176 256 512 c 1,20,21
 272 512 272 512 320 512 c 1,22,23
 320 400 320 400 320 64 c 1,16,17
448 64 m 1,24,25
 432 64 432 64 384 64 c 1,26,27
 384 176 384 176 384 512 c 1,28,29
 400 512 400 512 448 512 c 1,30,31
 448 400 448 400 448 64 c 1,24,25
576 64 m 1,32,33
 560 64 560 64 512 64 c 1,34,35
 512 176 512 176 512 512 c 1,36,37
 528 512 528 512 576 512 c 1,38,39
 576 400 576 400 576 64 c 1,32,33
704 64 m 1,40,41
 688 64 688 64 640 64 c 1,42,43
 640 176 640 176 640 512 c 1,44,45
 656 512 656 512 704 512 c 1,46,47
 704 400 704 400 704 64 c 1,40,41
848 832 m 0,48,49
 796 832 796 832 640 832 c 1,50,51
 640 852 640 852 640 912 c 0,52,53
 640 932 640 932 626 946 c 256,54,55
 612 960 612 960 592 960 c 0,56,57
 517 960 517 960 368 960 c 0,58,59
 348 960 348 960 334 946 c 256,60,61
 320 932 320 932 320 912 c 0,62,63
 320 885 320 885 320 832 c 1,64,65
 268 832 268 832 112 832 c 0,66,67
 92 832 92 832 78 818 c 256,68,69
 64 804 64 804 64 784 c 0,70,71
 64 757 64 757 64 704 c 1,72,73
 272 704 272 704 896 704 c 1,74,75
 896 724 896 724 896 784 c 0,76,77
 896 804 896 804 882 818 c 256,78,79
 868 832 868 832 848 832 c 0,48,49
576 832 m 1,80,81
 528 832 528 832 384 832 c 1,82,83
 384 848 384 848 384 895 c 1,84,85
 432 895 432 895 576 895 c 1,86,87
 576 879 576 879 576 832 c 1,80,81
EndSplineSet
Validated: 9
EndChar

StartChar: unie662
Encoding: 58978 58978 38
Width: 1024
Flags: W
LayerCount: 2
Fore
SplineSet
512 951 m 256,0,1
 408 951 408 951 317 911 c 0,2,3
 225 872 225 872 156 803 c 0,4,5
 88 735 88 735 49 643 c 0,6,7
 9 552 9 552 9 448 c 256,8,9
 9 344 9 344 49 253 c 0,10,11
 88 161 88 161 156 92 c 0,12,13
 225 24 225 24 317 -15 c 0,14,15
 408 -55 408 -55 512 -55 c 256,16,17
 616 -55 616 -55 707 -15 c 0,18,19
 799 24 799 24 867 92 c 0,20,21
 936 161 936 161 975 253 c 0,22,23
 1015 344 1015 344 1015 448 c 256,24,25
 1015 552 1015 552 975 643 c 0,26,27
 936 735 936 735 867 803 c 0,28,29
 799 872 799 872 707 911 c 0,30,31
 616 951 616 951 512 951 c 256,0,1
512 17 m 256,32,33
 423 17 423 17 344 51 c 0,34,35
 266 85 266 85 207 143 c 0,36,37
 149 202 149 202 115 280 c 0,38,39
 81 359 81 359 81 448 c 0,40,41
 81 538 81 538 115 616 c 0,42,43
 149 695 149 695 207 753 c 0,44,45
 266 812 266 812 344 846 c 0,46,47
 423 879 423 879 512 879 c 256,48,49
 601 879 601 879 680 846 c 0,50,51
 758 812 758 812 816 753 c 0,52,53
 875 695 875 695 909 616 c 256,54,55
 943 537 943 537 943 448 c 256,56,57
 943 359 943 359 909 280 c 0,58,59
 875 202 875 202 816 143 c 0,60,61
 758 85 758 85 680 51 c 0,62,63
 601 17 601 17 512 17 c 256,32,33
797 520 m 1,64,65
 744 520 744 520 584 520 c 1,66,67
 584 574 584 574 584 736 c 1,68,69
 548 736 548 736 440 736 c 1,70,71
 440 682 440 682 440 520 c 1,72,73
 386 520 386 520 226 520 c 1,74,75
 226 484 226 484 226 376 c 1,76,77
 279 376 279 376 440 376 c 1,78,79
 440 323 440 323 440 165 c 1,80,81
 476 165 476 165 584 165 c 1,82,83
 584 218 584 218 584 376 c 1,84,85
 637 376 637 376 797 376 c 1,86,87
 797 412 797 412 797 520 c 1,64,65
EndSplineSet
Validated: 9
EndChar

StartChar: unie663
Encoding: 58979 58979 39
Width: 1024
Flags: W
LayerCount: 2
Fore
SplineSet
512 951 m 256,0,1
 408 951 408 951 317 911 c 0,2,3
 225 872 225 872 156 803 c 0,4,5
 88 735 88 735 49 643 c 0,6,7
 9 552 9 552 9 448 c 256,8,9
 9 344 9 344 49 253 c 0,10,11
 88 161 88 161 156 92 c 0,12,13
 225 24 225 24 317 -15 c 0,14,15
 408 -55 408 -55 512 -55 c 256,16,17
 616 -55 616 -55 707 -15 c 0,18,19
 799 24 799 24 867 92 c 0,20,21
 936 161 936 161 975 253 c 0,22,23
 1015 344 1015 344 1015 448 c 256,24,25
 1015 552 1015 552 975 643 c 0,26,27
 936 735 936 735 867 803 c 0,28,29
 799 872 799 872 707 911 c 0,30,31
 616 951 616 951 512 951 c 256,0,1
512 17 m 256,32,33
 423 17 423 17 344 51 c 0,34,35
 266 85 266 85 207 143 c 0,36,37
 149 202 149 202 115 280 c 0,38,39
 81 359 81 359 81 448 c 0,40,41
 81 538 81 538 115 616 c 0,42,43
 149 695 149 695 207 753 c 0,44,45
 266 812 266 812 344 846 c 0,46,47
 423 879 423 879 512 879 c 256,48,49
 601 879 601 879 680 846 c 0,50,51
 758 812 758 812 816 753 c 0,52,53
 875 695 875 695 909 616 c 256,54,55
 943 537 943 537 943 448 c 256,56,57
 943 359 943 359 909 280 c 0,58,59
 875 202 875 202 816 143 c 0,60,61
 758 85 758 85 680 51 c 0,62,63
 601 17 601 17 512 17 c 256,32,33
226 520 m 1,64,65
 369 520 369 520 797 520 c 1,66,67
 797 484 797 484 797 376 c 1,68,69
 654 376 654 376 226 376 c 1,70,71
 226 412 226 412 226 520 c 1,72,73
 226 520 226 520 226 520 c 1,64,65
EndSplineSet
Validated: 5
EndChar

StartChar: unie670
Encoding: 58992 58992 40
Width: 1024
Flags: W
LayerCount: 2
Fore
SplineSet
729 -17 m 0,0,1
 622 -17 622 -17 299 -17 c 0,2,3
 248 -17 248 -17 203 3 c 256,4,5
 158 23 158 23 124 56 c 0,6,7
 90 90 90 90 70 135 c 0,8,9
 51 180 51 180 51 231 c 0,10,11
 51 374 51 374 51 661 c 0,12,13
 51 712 51 712 70 757 c 0,14,15
 90 802 90 802 124 836 c 256,16,17
 158 870 158 870 203 890 c 0,18,19
 248 909 248 909 299 909 c 0,20,21
 442 909 442 909 729 909 c 0,22,23
 780 909 780 909 825 890 c 0,24,25
 870 870 870 870 903 836 c 0,26,27
 937 802 937 802 957 757 c 256,28,29
 977 712 977 712 977 661 c 0,30,31
 977 518 977 518 977 231 c 0,32,33
 977 180 977 180 957 135 c 256,34,35
 937 90 937 90 903 56 c 0,36,37
 870 23 870 23 825 3 c 256,38,39
 780 -17 780 -17 729 -17 c 0,0,1
790 523 m 1,40,41
 741 523 741 523 592 523 c 1,42,43
 592 573 592 573 592 723 c 0,44,45
 592 737 592 737 582 746 c 0,46,47
 572 756 572 756 559 756 c 0,48,49
 529 756 529 756 470 756 c 0,50,51
 457 756 457 756 447 746 c 0,52,53
 437 737 437 737 437 723 c 0,54,55
 437 657 437 657 437 524 c 1,56,57
 387 524 387 524 239 524 c 0,58,59
 224 524 224 524 214 514 c 256,60,61
 204 504 204 504 204 489 c 0,62,63
 204 460 204 460 204 403 c 0,64,65
 204 389 204 389 214 378 c 0,66,67
 224 368 224 368 239 368 c 0,68,69
 305 368 305 368 437 368 c 1,70,71
 437 318 437 318 437 169 c 0,72,73
 437 156 437 156 446 146 c 0,74,75
 456 136 456 136 470 136 c 0,76,77
 499 136 499 136 558 136 c 0,78,79
 572 136 572 136 582 146 c 0,80,81
 591 156 591 156 591 169 c 0,82,83
 591 235 591 235 591 368 c 1,84,85
 640 368 640 368 789 368 c 0,86,87
 803 368 803 368 814 378 c 0,88,89
 824 389 824 389 824 403 c 0,90,91
 824 432 824 432 824 489 c 0,92,93
 824 503 824 503 814 513 c 0,94,95
 803 523 803 523 790 523 c 1,96,97
 790 523 790 523 790 523 c 1,40,41
EndSplineSet
Validated: 5
EndChar

StartChar: unie671
Encoding: 58993 58993 41
Width: 1024
Flags: W
LayerCount: 2
Fore
SplineSet
729 -17 m 0,0,1
 622 -17 622 -17 299 -17 c 0,2,3
 248 -17 248 -17 203 3 c 256,4,5
 158 23 158 23 124 56 c 0,6,7
 90 90 90 90 70 135 c 0,8,9
 51 180 51 180 51 231 c 0,10,11
 51 374 51 374 51 661 c 0,12,13
 51 712 51 712 70 757 c 0,14,15
 90 802 90 802 124 836 c 256,16,17
 158 870 158 870 203 890 c 0,18,19
 248 909 248 909 299 909 c 0,20,21
 442 909 442 909 729 909 c 0,22,23
 780 909 780 909 825 890 c 0,24,25
 870 870 870 870 903 836 c 0,26,27
 937 802 937 802 957 757 c 256,28,29
 977 712 977 712 977 661 c 0,30,31
 977 518 977 518 977 231 c 0,32,33
 977 180 977 180 957 135 c 256,34,35
 937 90 937 90 903 56 c 0,36,37
 870 23 870 23 825 3 c 256,38,39
 780 -17 780 -17 729 -17 c 0,0,1
824 417 m 0,40,41
 824 432 824 432 824 476 c 0,42,43
 824 496 824 496 810 510 c 0,44,45
 795 524 795 524 776 524 c 0,46,47
 601 524 601 524 252 524 c 0,48,49
 232 524 232 524 218 510 c 256,50,51
 204 496 204 496 204 476 c 256,52,53
 204 456 204 456 204 417 c 0,54,55
 204 397 204 397 218 383 c 256,56,57
 232 369 232 369 252 369 c 0,58,59
 427 369 427 369 776 369 c 0,60,61
 795 369 795 369 810 383 c 0,62,63
 824 397 824 397 824 417 c 0,40,41
EndSplineSet
Validated: 1
EndChar

StartChar: unie672
Encoding: 58994 58994 42
Width: 1024
Flags: W
LayerCount: 2
Fore
SplineSet
146 591 m 1,0,1
 329 591 329 591 878 591 c 1,2,3
 787 499 787 499 512 225 c 1,4,5
 420 317 420 317 146 591 c 1,0,1
EndSplineSet
Validated: 1
EndChar

StartChar: unie673
Encoding: 58995 58995 43
Width: 1024
Flags: W
LayerCount: 2
Fore
SplineSet
878 302 m 1,0,1
 695 302 695 302 146 302 c 1,2,3
 237 394 237 394 512 668 c 1,4,5
 604 577 604 577 878 302 c 1,0,1
EndSplineSet
Validated: 1
EndChar

StartChar: unie674
Encoding: 58996 58996 44
Width: 1024
Flags: W
LayerCount: 2
Fore
SplineSet
896 960 m 0,0,1
 704 960 704 960 128 960 c 0,2,3
 75 960 75 960 38 922 c 0,4,5
 0 885 0 885 0 832 c 0,6,7
 0 576 0 576 0 64 c 0,8,9
 0 11 0 11 38 -26 c 0,10,11
 75 -64 75 -64 128 -64 c 0,12,13
 384 -64 384 -64 896 -64 c 0,14,15
 949 -64 949 -64 986 -26 c 0,16,17
 1024 11 1024 11 1024 64 c 0,18,19
 1024 320 1024 320 1024 832 c 0,20,21
 1024 885 1024 885 986 922 c 0,22,23
 949 960 949 960 896 960 c 0,0,1
896 64 m 1,24,25
 704 64 704 64 128 64 c 1,26,27
 128 256 128 256 128 832 c 1,28,29
 320 832 320 832 896 832 c 1,30,31
 896 640 896 640 896 64 c 1,24,25
695 656 m 1,32,33
 632 594 632 594 445 406 c 1,34,35
 416 435 416 435 329 523 c 1,36,37
 308 502 308 502 246 440 c 1,38,39
 296 390 296 390 445 240 c 1,40,41
 528 323 528 323 778 573 c 1,42,43
 757 594 757 594 695 656 c 1,32,33
EndSplineSet
Validated: 9
EndChar

StartChar: unie675
Encoding: 58997 58997 45
Width: 1024
Flags: W
LayerCount: 2
Fore
SplineSet
896 960 m 0,0,1
 704 960 704 960 128 960 c 0,2,3
 75 960 75 960 38 922 c 0,4,5
 0 885 0 885 0 832 c 0,6,7
 0 576 0 576 0 64 c 0,8,9
 0 11 0 11 38 -26 c 0,10,11
 75 -64 75 -64 128 -64 c 0,12,13
 384 -64 384 -64 896 -64 c 0,14,15
 949 -64 949 -64 986 -26 c 0,16,17
 1024 11 1024 11 1024 64 c 0,18,19
 1024 320 1024 320 1024 832 c 0,20,21
 1024 885 1024 885 986 922 c 0,22,23
 949 960 949 960 896 960 c 0,0,1
896 64 m 1,24,25
 704 64 704 64 128 64 c 1,26,27
 128 256 128 256 128 832 c 1,28,29
 320 832 320 832 896 832 c 1,30,31
 896 640 896 640 896 64 c 1,24,25
EndSplineSet
Validated: 9
EndChar

StartChar: unie676
Encoding: 58998 58998 46
Width: 1024
Flags: W
LayerCount: 2
Fore
SplineSet
745 733 m 1,0,1
 758 720 758 720 796 681 c 1,2,3
 667 552 667 552 279 164 c 1,4,5
 266 177 266 177 227 215 c 1,6,7
 357 344 357 344 745 733 c 1,0,1
227 681 m 1,8,9
 240 694 240 694 279 732 c 1,10,11
 408 603 408 603 796 215 c 1,12,13
 783 202 783 202 745 163 c 1,14,15
 616 293 616 293 227 681 c 1,16,17
 227 681 227 681 227 681 c 1,8,9
EndSplineSet
Validated: 5
EndChar

StartChar: unie677
Encoding: 58999 58999 47
Width: 1024
Flags: W
LayerCount: 2
Fore
SplineSet
80 816 m 1,0,1
 298 816 298 816 950 816 c 1,2,3
 867 732 867 732 616 482 c 1,4,5
 616 415 616 415 616 214 c 1,6,7
 566 181 566 181 416 81 c 1,8,9
 416 181 416 181 416 480 c 1,10,11
 332 564 332 564 80 816 c 1,0,1
EndSplineSet
Validated: 1
EndChar

StartChar: unie678
Encoding: 59000 59000 48
Width: 1024
Flags: W
LayerCount: 2
Fore
SplineSet
73 814 m 1,0,1
 73 628 73 628 73 71 c 1,2,3
 293 71 293 71 951 71 c 1,4,5
 951 257 951 257 951 814 c 1,6,7
 731 814 731 814 73 814 c 1,8,9
 73 814 73 814 73 814 c 1,0,1
884 138 m 1,10,11
 698 138 698 138 140 138 c 1,12,13
 140 256 140 256 140 611 c 1,14,15
 326 611 326 611 883 611 c 1,16,17
 883 493 883 493 883 138 c 1,18,19
 883 138 883 138 884 138 c 1,10,11
276 543 m 1,20,21
 293 543 293 543 343 543 c 1,22,23
 343 526 343 526 343 476 c 1,24,25
 326 476 326 476 276 476 c 1,26,27
 276 493 276 493 276 543 c 1,20,21
411 544 m 1,28,29
 428 544 428 544 478 544 c 1,30,31
 478 527 478 527 478 476 c 1,32,33
 461 476 461 476 411 476 c 1,34,35
 411 493 411 493 411 544 c 1,28,29
546 543 m 1,36,37
 563 543 563 543 613 543 c 1,38,39
 613 526 613 526 613 476 c 1,40,41
 596 476 596 476 546 476 c 1,42,43
 546 493 546 493 546 543 c 1,36,37
681 543 m 1,44,45
 698 543 698 543 748 543 c 1,46,47
 748 526 748 526 748 476 c 1,48,49
 731 476 731 476 681 476 c 1,50,51
 681 493 681 493 681 543 c 1,52,53
 681 543 681 543 681 543 c 1,44,45
276 409 m 1,54,55
 293 409 293 409 343 409 c 1,56,57
 343 392 343 392 343 341 c 1,58,59
 326 341 326 341 276 341 c 1,60,61
 276 358 276 358 276 409 c 1,62,63
 276 409 276 409 276 409 c 1,54,55
411 409 m 1,64,65
 428 409 428 409 478 409 c 1,66,67
 478 392 478 392 478 341 c 1,68,69
 461 341 461 341 411 341 c 1,70,71
 411 358 411 358 411 409 c 1,64,65
545 409 m 1,72,73
 562 409 562 409 613 409 c 1,74,75
 613 392 613 392 613 341 c 1,76,77
 596 341 596 341 545 341 c 1,78,79
 545 358 545 358 545 409 c 1,72,73
681 409 m 1,80,81
 698 409 698 409 748 409 c 1,82,83
 748 392 748 392 748 341 c 1,84,85
 731 341 731 341 681 341 c 1,86,87
 681 358 681 358 681 409 c 1,88,89
 681 409 681 409 681 409 c 1,80,81
276 274 m 1,90,91
 293 274 293 274 343 274 c 1,92,93
 343 257 343 257 343 206 c 1,94,95
 326 206 326 206 276 206 c 1,96,97
 276 223 276 223 276 274 c 1,90,91
411 274 m 1,98,99
 428 274 428 274 478 274 c 1,100,101
 478 257 478 257 478 206 c 1,102,103
 461 206 461 206 411 206 c 1,104,105
 411 223 411 223 411 274 c 1,98,99
546 274 m 1,106,107
 563 274 563 274 613 274 c 1,108,109
 613 257 613 257 613 206 c 1,110,111
 596 206 596 206 546 206 c 1,112,113
 546 223 546 223 546 274 c 1,106,107
EndSplineSet
Validated: 5
EndChar

StartChar: unie679
Encoding: 59001 59001 49
Width: 1024
Flags: W
LayerCount: 2
Fore
SplineSet
983 369 m 1,0,1
 983 408 983 408 983 526 c 1,2,3
 948 537 948 537 844 568 c 1,4,5
 841 576 841 576 838 584 c 256,6,7
 835 592 835 592 831 600 c 1,8,9
 854 642 854 642 900 725 c 1,10,11
 872 753 872 753 789 836 c 1,12,13
 757 819 757 819 661 767 c 1,14,15
 654 771 654 771 646 774 c 0,16,17
 638 778 638 778 629 781 c 1,18,19
 616 827 616 827 590 919 c 1,20,21
 551 919 551 919 433 919 c 1,22,23
 423 884 423 884 392 780 c 1,24,25
 383 777 383 777 375 774 c 0,26,27
 367 770 367 770 360 766 c 1,28,29
 318 789 318 789 235 836 c 1,30,31
 207 808 207 808 124 725 c 1,32,33
 141 693 141 693 192 597 c 1,34,35
 188 590 188 590 185 582 c 256,36,37
 182 574 182 574 179 565 c 1,38,39
 133 552 133 552 41 526 c 1,40,41
 41 487 41 487 41 369 c 1,42,43
 76 359 76 359 180 328 c 1,44,45
 183 319 183 319 186 311 c 256,46,47
 189 303 189 303 193 296 c 1,48,49
 170 254 170 254 124 171 c 1,50,51
 152 143 152 143 235 60 c 1,52,53
 267 77 267 77 363 128 c 1,54,55
 370 124 370 124 378 121 c 256,56,57
 386 118 386 118 395 115 c 1,58,59
 408 69 408 69 434 -23 c 1,60,61
 473 -23 473 -23 591 -23 c 1,62,63
 601 12 601 12 632 116 c 1,64,65
 641 119 641 119 649 122 c 256,66,67
 657 125 657 125 664 129 c 1,68,69
 706 106 706 106 789 60 c 1,70,71
 817 88 817 88 900 171 c 1,72,73
 883 203 883 203 832 299 c 1,74,75
 836 306 836 306 839 314 c 256,76,77
 842 322 842 322 845 331 c 1,78,79
 891 344 891 344 983 369 c 1,80,81
 983 369 983 369 983 369 c 1,0,1
630 448 m 256,82,83
 630 399 630 399 596 364 c 0,84,85
 561 330 561 330 512 330 c 256,86,87
 463 330 463 330 428 364 c 0,88,89
 394 399 394 399 394 448 c 256,90,91
 394 497 394 497 428 532 c 0,92,93
 463 566 463 566 512 566 c 256,94,95
 561 566 561 566 596 532 c 0,96,97
 630 497 630 497 630 448 c 256,82,83
EndSplineSet
Validated: 5
EndChar

StartChar: unie67a
Encoding: 59002 59002 50
Width: 1024
Flags: W
LayerCount: 2
Fore
SplineSet
72 817 m 1,0,1
 292 817 292 817 950 817 c 1,2,3
 950 798 950 798 950 741 c 1,4,5
 731 741 731 741 72 741 c 1,6,7
 72 760 72 760 72 817 c 1,8,9
 72 817 72 817 72 817 c 1,0,1
72 523 m 1,10,11
 292 523 292 523 950 523 c 1,12,13
 950 504 950 504 950 447 c 1,14,15
 731 447 731 447 72 447 c 1,16,17
 72 466 72 466 72 523 c 1,18,19
 72 523 72 523 72 523 c 1,10,11
72 230 m 1,20,21
 292 230 292 230 950 230 c 1,22,23
 950 211 950 211 950 154 c 1,24,25
 731 154 731 154 72 154 c 1,26,27
 72 173 72 173 72 230 c 1,28,29
 72 230 72 230 72 230 c 1,20,21
EndSplineSet
Validated: 5
EndChar

StartChar: unie680
Encoding: 59008 59008 51
Width: 1024
Flags: W
LayerCount: 2
Fore
SplineSet
1024 576 m 1,0,1
 928 576 928 576 640 576 c 1,2,3
 676 612 676 612 784 720 c 1,4,5
 729 774 729 774 659 803 c 256,6,7
 589 832 589 832 512 832 c 256,8,9
 435 832 435 832 365 803 c 256,10,11
 295 774 295 774 240 720 c 0,12,13
 186 665 186 665 157 595 c 256,14,15
 128 525 128 525 128 448 c 256,16,17
 128 371 128 371 157 301 c 256,18,19
 186 231 186 231 240 176 c 0,20,21
 295 122 295 122 365 93 c 256,22,23
 435 64 435 64 512 64 c 256,24,25
 589 64 589 64 659 93 c 256,26,27
 729 122 729 122 784 176 c 0,28,29
 788 181 788 181 792 186 c 0,30,31
 797 190 797 190 801 195 c 1,32,33
 833 167 833 167 897 111 c 1,34,35
 862 71 862 71 819 38 c 0,36,37
 776 6 776 6 727 -16 c 0,38,39
 678 -39 678 -39 624 -51 c 0,40,41
 570 -64 570 -64 512 -64 c 0,42,43
 406 -64 406 -64 313 -24 c 0,44,45
 219 16 219 16 149 85 c 0,46,47
 80 155 80 155 40 249 c 0,48,49
 0 342 0 342 0 448 c 256,50,51
 0 554 0 554 40 647 c 0,52,53
 80 741 80 741 149 810 c 0,54,55
 219 880 219 880 313 920 c 0,56,57
 406 960 406 960 512 960 c 0,58,59
 565 960 565 960 615 950 c 0,60,61
 665 939 665 939 711 919 c 0,62,63
 757 900 757 900 798 872 c 0,64,65
 839 845 839 845 874 810 c 1,66,67
 924 860 924 860 1024 960 c 1,68,69
 1024 864 1024 864 1024 576 c 1,0,1
EndSplineSet
Validated: 1
EndChar

StartChar: unie690
Encoding: 59024 59024 52
Width: 1024
Flags: W
LayerCount: 2
Fore
SplineSet
941 117 m 1,0,1
 895 163 895 163 757 301 c 1,2,3
 789 346 789 346 806 400 c 0,4,5
 824 454 824 454 824 514 c 0,6,7
 824 591 824 591 794 659 c 0,8,9
 765 728 765 728 714 779 c 256,10,11
 663 830 663 830 594 860 c 0,12,13
 526 890 526 890 448 890 c 256,14,15
 370 890 370 890 302 860 c 0,16,17
 233 830 233 830 182 779 c 256,18,19
 131 728 131 728 102 659 c 0,20,21
 72 591 72 591 72 514 c 0,22,23
 72 436 72 436 102 367 c 0,24,25
 131 299 131 299 182 248 c 256,26,27
 233 197 233 197 302 167 c 0,28,29
 370 138 370 138 448 138 c 0,30,31
 507 138 507 138 561 155 c 256,32,33
 615 172 615 172 661 203 c 1,34,35
 722 142 722 142 844 20 c 0,36,37
 863 2 863 2 889 2 c 256,38,39
 915 2 915 2 933 20 c 0,40,41
 936 22 936 22 941 27 c 0,42,43
 959 46 959 46 959 73 c 0,44,45
 959 99 959 99 941 117 c 1,46,47
 941 117 941 117 941 117 c 1,0,1
448 271 m 0,48,49
 397 271 397 271 353 290 c 256,50,51
 309 309 309 309 276 342 c 256,52,53
 243 375 243 375 224 419 c 256,54,55
 205 463 205 463 205 514 c 0,56,57
 205 564 205 564 224 608 c 256,58,59
 243 652 243 652 276 685 c 256,60,61
 309 718 309 718 353 737 c 256,62,63
 397 756 397 756 448 756 c 0,64,65
 498 756 498 756 542 737 c 256,66,67
 586 718 586 718 619 685 c 256,68,69
 652 652 652 652 672 608 c 0,70,71
 691 564 691 564 691 514 c 0,72,73
 691 463 691 463 672 419 c 0,74,75
 652 375 652 375 619 342 c 256,76,77
 586 309 586 309 542 290 c 256,78,79
 498 271 498 271 448 271 c 0,48,49
EndSplineSet
Validated: 5
EndChar

StartChar: unie691
Encoding: 59025 59025 53
Width: 1024
Flags: W
LayerCount: 2
Fore
SplineSet
85 302 m 1,0,1
 192 411 192 411 514 736 c 1,2,3
 568 682 568 682 729 519 c 1,4,5
 622 410 622 410 299 85 c 1,6,7
 228 67 228 67 14 14 c 1,8,9
 32 86 32 86 85 302 c 1,0,1
228 158 m 1,10,11
 317 248 317 248 586 519 c 1,12,13
 568 537 568 537 514 591 c 1,14,15
 424 501 424 501 156 230 c 1,16,17
 174 212 174 212 228 158 c 1,10,11
837 834 m 1,18,19
 874 784 874 784 878 748 c 0,20,21
 879 740 879 740 879 732 c 0,22,23
 879 697 879 697 861 670 c 0,24,25
 837 630 837 630 822 613 c 0,26,27
 815 606 815 606 801 591 c 1,28,29
 747 645 747 645 586 808 c 1,30,31
 592 813 592 813 609 828 c 0,32,33
 633 848 633 848 669 863 c 0,34,35
 703 878 703 878 743 878 c 0,36,37
 746 878 746 878 749 878 c 0,38,39
 794 877 794 877 837 834 c 1,18,19
EndSplineSet
Validated: 1
EndChar

StartChar: unie692
Encoding: 59026 59026 54
Width: 1024
Flags: W
LayerCount: 2
Fore
SplineSet
768 256 m 1,0,1
 768 352 768 352 768 640 c 1,2,3
 752 640 752 640 704 640 c 1,4,5
 704 544 704 544 704 256 c 1,6,7
 664 256 664 256 544 256 c 1,8,9
 592 208 592 208 736 64 c 1,10,11
 784 112 784 112 928 256 c 1,12,13
 888 256 888 256 768 256 c 1,0,1
320 704 m 1,14,15
 320 656 320 656 320 512 c 1,16,17
 272 512 272 512 128 512 c 1,18,19
 128 560 128 560 128 704 c 1,20,21
 176 704 176 704 320 704 c 1,14,15
384 768 m 1,22,23
 304 768 304 768 64 768 c 1,24,25
 64 688 64 688 64 448 c 1,26,27
 144 448 144 448 384 448 c 1,28,29
 384 528 384 528 384 768 c 1,22,23
64 320 m 1,30,31
 88 320 88 320 160 320 c 1,32,33
 160 304 160 304 160 256 c 1,34,35
 136 256 136 256 64 256 c 1,36,37
 64 272 64 272 64 320 c 1,30,31
192 320 m 1,38,39
 216 320 216 320 288 320 c 1,40,41
 288 304 288 304 288 256 c 1,42,43
 264 256 264 256 192 256 c 1,44,45
 192 272 192 272 192 320 c 1,38,39
320 320 m 1,46,47
 336 320 336 320 384 320 c 1,48,49
 384 296 384 296 384 224 c 1,50,51
 368 224 368 224 320 224 c 1,52,53
 320 248 320 248 320 320 c 1,46,47
64 96 m 1,54,55
 80 96 80 96 128 96 c 1,56,57
 128 72 128 72 128 0 c 1,58,59
 112 0 112 0 64 0 c 1,60,61
 64 24 64 24 64 96 c 1,54,55
160 64 m 1,62,63
 184 64 184 64 256 64 c 1,64,65
 256 48 256 48 256 0 c 1,66,67
 232 0 232 0 160 0 c 1,68,69
 160 16 160 16 160 64 c 1,62,63
288 64 m 1,70,71
 312 64 312 64 384 64 c 1,72,73
 384 48 384 48 384 0 c 1,74,75
 360 0 360 0 288 0 c 1,76,77
 288 16 288 16 288 64 c 1,70,71
64 224 m 1,78,79
 80 224 80 224 128 224 c 1,80,81
 128 200 128 200 128 128 c 1,82,83
 112 128 112 128 64 128 c 1,84,85
 64 152 64 152 64 224 c 1,78,79
320 192 m 1,86,87
 336 192 336 192 384 192 c 1,88,89
 384 168 384 168 384 96 c 1,90,91
 368 96 368 96 320 96 c 1,92,93
 320 120 320 120 320 192 c 1,86,87
EndSplineSet
Validated: 9
EndChar

StartChar: unie693
Encoding: 59027 59027 55
Width: 1024
Flags: W
LayerCount: 2
Fore
SplineSet
256 255 m 1,0,1
 256 319 256 319 256 510 c 1,2,3
 288 510 288 510 382 510 c 1,4,5
 335 565 335 565 193 731 c 1,6,7
 145 676 145 676 1 510 c 1,8,9
 33 510 33 510 127 510 c 1,10,11
 127 415 127 415 127 129 c 1,12,13
 267 129 267 129 686 129 c 1,14,15
 655 161 655 161 560 255 c 1,16,17
 484 255 484 255 256 255 c 1,18,19
 256 255 256 255 256 255 c 1,0,1
897 352 m 1,20,21
 897 448 897 448 897 735 c 1,22,23
 757 735 757 735 336 735 c 1,24,25
 368 703 368 703 464 607 c 1,26,27
 540 607 540 607 768 607 c 1,28,29
 768 543 768 543 768 352 c 1,30,31
 736 352 736 352 642 352 c 1,32,33
 689 297 689 297 831 131 c 1,34,35
 879 186 879 186 1023 352 c 1,36,37
 991 352 991 352 897 352 c 1,20,21
EndSplineSet
Validated: 5
EndChar

StartChar: unie694
Encoding: 59028 59028 56
Width: 1024
Flags: W
LayerCount: 2
Fore
SplineSet
147 650 m 1,0,1
 147 686 147 686 147 793 c 1,2,3
 147 793 147 793 163 808 c 0,4,5
 179 822 179 822 220 839 c 0,6,7
 261 857 261 857 331 872 c 0,8,9
 402 886 402 886 512 886 c 256,10,11
 622 886 622 886 693 872 c 0,12,13
 763 857 763 857 804 839 c 0,14,15
 846 822 846 822 862 808 c 0,16,17
 878 793 878 793 878 793 c 1,18,19
 878 744 878 744 878 647 c 1,20,21
 878 647 878 647 818 603 c 0,22,23
 759 560 759 560 512 560 c 0,24,25
 270 560 270 560 209 605 c 0,26,27
 147 650 147 650 147 650 c 1,0,1
155 431 m 1,28,29
 154 466 154 466 151 573 c 1,30,31
 151 573 151 573 162 556 c 0,32,33
 172 539 172 539 209 518 c 0,34,35
 247 498 247 498 318 481 c 0,36,37
 390 464 390 464 512 464 c 0,38,39
 633 464 633 464 705 481 c 0,40,41
 776 498 776 498 813 518 c 0,42,43
 851 539 851 539 862 556 c 0,44,45
 874 573 874 573 874 573 c 1,46,47
 873 524 873 524 870 427 c 1,48,49
 870 427 870 427 854 406 c 0,50,51
 839 386 839 386 799 361 c 0,52,53
 760 337 760 337 690 317 c 0,54,55
 621 296 621 296 512 296 c 0,56,57
 404 296 404 296 335 317 c 256,58,59
 266 338 266 338 226 363 c 0,60,61
 186 389 186 389 170 410 c 0,62,63
 155 431 155 431 155 431 c 257,64,65
 155 431 155 431 155 431 c 1,28,29
159 212 m 1,66,67
 158 247 158 247 155 354 c 1,68,69
 155 354 155 354 170 330 c 0,70,71
 184 307 184 307 223 279 c 0,72,73
 263 251 263 251 332 228 c 0,74,75
 402 204 402 204 512 204 c 256,76,77
 622 204 622 204 692 228 c 0,78,79
 761 251 761 251 800 279 c 0,80,81
 840 307 840 307 855 330 c 0,82,83
 870 354 870 354 870 354 c 1,84,85
 868 305 868 305 865 208 c 1,86,87
 865 208 865 208 851 179 c 0,88,89
 837 151 837 151 797 116 c 0,90,91
 758 82 758 82 690 54 c 0,92,93
 621 25 621 25 512 25 c 0,94,95
 404 25 404 25 335 54 c 0,96,97
 267 83 267 83 227 118 c 0,98,99
 188 153 188 153 174 182 c 0,100,101
 159 212 159 212 159 212 c 257,102,103
 159 212 159 212 159 212 c 1,66,67
EndSplineSet
Validated: 5
EndChar

StartChar: unie695
Encoding: 59029 59029 57
Width: 1024
Flags: W
LayerCount: 2
Fore
SplineSet
872 879 m 1,0,1
 836 879 836 879 728 879 c 1,2,3
 728 879 728 879 728 880 c 2,4,5
 728 880 728 880 718 916 c 0,6,7
 709 952 709 952 656 952 c 0,8,9
 560 952 560 952 368 952 c 1,10,11
 368 952 368 952 333 942 c 0,12,13
 297 933 297 933 297 882 c 1,14,15
 297 882 297 882 296 881 c 0,16,17
 260 881 260 881 152 879 c 1,18,19
 152 879 152 879 115 871 c 0,20,21
 79 863 79 863 79 808 c 0,22,23
 79 759 79 759 79 680 c 0,24,25
 79 602 79 602 79 593 c 1,26,27
 79 593 79 593 78 593 c 1,28,29
 79 449 79 449 80 16 c 0,30,31
 80 -38 80 -38 116 -46 c 0,32,33
 152 -55 152 -55 152 -55 c 1,34,35
 392 -55 392 -55 872 -55 c 0,36,37
 926 -55 926 -55 935 -20 c 256,38,39
 944 15 944 15 944 15 c 1,40,41
 944 207 944 207 944 592 c 0,42,43
 944 601 944 601 944 680 c 256,44,45
 944 759 944 759 944 808 c 0,46,47
 944 862 944 862 908 870 c 0,48,49
 872 879 872 879 872 879 c 257,50,51
 872 879 872 879 872 879 c 1,0,1
368 880 m 1,52,53
 440 880 440 880 656 880 c 1,54,55
 656 844 656 844 656 736 c 1,56,57
 584 736 584 736 368 736 c 1,58,59
 368 772 368 772 368 880 c 1,60,61
 368 880 368 880 368 880 c 1,52,53
872 14 m 1,62,63
 692 15 692 15 152 16 c 1,64,65
 152 178 152 178 152 664 c 1,66,67
 332 664 332 664 872 664 c 1,68,69
 872 502 872 502 872 14 c 1,62,63
440 128 m 1,70,71
 386 200 386 200 224 416 c 1,72,73
 248 439 248 439 321 508 c 1,74,75
 354 465 354 465 453 334 c 1,76,77
 517 399 517 399 710 592 c 1,78,79
 733 566 733 566 800 488 c 1,80,81
 710 398 710 398 440 128 c 1,70,71
EndSplineSet
Validated: 5
EndChar

StartChar: unie696
Encoding: 59030 59030 58
Width: 1024
Flags: W
LayerCount: 2
Fore
SplineSet
590 212 m 1,0,1
 590 173 590 173 590 56 c 1,2,3
 472 56 472 56 119 56 c 1,4,5
 119 251 119 251 119 835 c 1,6,7
 237 835 237 835 590 835 c 1,8,9
 590 797 590 797 590 684 c 1,10,11
 610 684 610 684 669 684 c 1,12,13
 669 743 669 743 669 919 c 1,14,15
 512 919 512 919 41 919 c 1,16,17
 41 683 41 683 41 -23 c 1,18,19
 198 -23 198 -23 669 -23 c 1,20,21
 669 36 669 36 669 212 c 1,22,23
 649 212 649 212 590 212 c 1,0,1
276 526 m 1,24,25
 394 526 394 526 748 526 c 1,26,27
 748 566 748 566 748 684 c 1,28,29
 807 625 807 625 983 448 c 1,30,31
 924 389 924 389 748 212 c 1,32,33
 748 251 748 251 748 369 c 1,34,35
 630 369 630 369 276 369 c 1,36,37
 276 408 276 408 276 526 c 1,24,25
EndSplineSet
Validated: 9
EndChar

StartChar: unie697
Encoding: 59031 59031 59
Width: 1024
Flags: W
LayerCount: 2
Fore
SplineSet
67 204 m 1,0,1
 67 259 67 259 67 423 c 1,2,3
 150 455 150 455 399 552 c 1,4,5
 399 529 399 529 399 460 c 1,6,7
 340 436 340 436 163 362 c 1,8,9
 250 331 250 331 512 239 c 1,10,11
 600 270 600 270 863 363 c 1,12,13
 803 388 803 388 625 461 c 1,14,15
 625 484 625 484 625 552 c 1,16,17
 707 520 707 520 951 425 c 1,18,19
 951 370 951 370 951 204 c 1,20,21
 841 160 841 160 512 29 c 1,22,23
 401 73 401 73 67 204 c 1,0,1
455 425 m 1,24,25
 455 480 455 480 455 645 c 1,26,27
 414 645 414 645 291 645 c 1,28,29
 346 700 346 700 512 866 c 1,30,31
 566 811 566 811 730 645 c 1,32,33
 688 645 688 645 564 645 c 1,34,35
 564 590 564 590 564 425 c 1,36,37
 537 425 537 425 455 425 c 1,24,25
EndSplineSet
Validated: 1
EndChar

StartChar: unie698
Encoding: 59032 59032 60
Width: 1024
Flags: W
LayerCount: 2
Fore
SplineSet
67 204 m 1,0,1
 67 259 67 259 67 423 c 1,2,3
 127 447 127 447 308 518 c 1,4,5
 324 501 324 501 373 449 c 1,6,7
 320 427 320 427 163 362 c 1,8,9
 250 331 250 331 512 239 c 1,10,11
 601 270 601 270 868 365 c 1,12,13
 814 386 814 386 651 448 c 1,14,15
 669 464 669 464 721 513 c 1,16,17
 779 491 779 491 951 425 c 1,18,19
 951 370 951 370 951 204 c 1,20,21
 841 161 841 161 512 30 c 1,22,23
 401 74 401 74 67 204 c 1,0,1
570 866 m 1,24,25
 570 811 570 811 570 645 c 1,26,27
 611 645 611 645 734 645 c 1,28,29
 679 590 679 590 514 425 c 1,30,31
 459 480 459 480 295 645 c 1,32,33
 336 645 336 645 461 645 c 1,34,35
 461 700 461 700 461 866 c 1,36,37
 488 866 488 866 570 866 c 1,24,25
EndSplineSet
Validated: 1
EndChar

StartChar: unie699
Encoding: 59033 59033 61
Width: 1024
Flags: W
LayerCount: 2
Fore
SplineSet
400 448 m 1,0,1
 358 490 358 490 232 616 c 1,2,3
 232 588 232 588 232 504 c 1,4,5
 176 504 176 504 8 504 c 1,6,7
 8 476 8 476 8 392 c 1,8,9
 64 392 64 392 232 392 c 1,10,11
 232 364 232 364 232 280 c 1,12,13
 274 322 274 322 400 448 c 1,0,1
792 280 m 1,14,15
 792 308 792 308 792 392 c 1,16,17
 848 392 848 392 1016 392 c 1,18,19
 1016 420 1016 420 1016 504 c 1,20,21
 960 504 960 504 792 504 c 1,22,23
 792 532 792 532 792 616 c 1,24,25
 750 574 750 574 624 448 c 1,26,27
 666 406 666 406 792 280 c 1,14,15
512 0 m 256,28,29
 535 0 535 0 551 5 c 0,30,31
 568 10 568 10 568 34 c 0,32,33
 568 310 568 310 568 862 c 0,34,35
 568 886 568 886 551 891 c 0,36,37
 535 896 535 896 512 896 c 256,38,39
 489 896 489 896 473 891 c 0,40,41
 456 886 456 886 456 862 c 0,42,43
 456 586 456 586 456 34 c 0,44,45
 456 10 456 10 473 5 c 0,46,47
 489 0 489 0 512 0 c 256,28,29
EndSplineSet
Validated: 9
EndChar

StartChar: unie69a
Encoding: 59034 59034 62
Width: 1024
Flags: W
LayerCount: 2
Fore
SplineSet
1024 283 m 1,0,1
 1024 256 1024 256 1024 174 c 0,2,3
 1024 166 1024 166 1019 161 c 0,4,5
 1013 155 1013 155 1006 155 c 0,6,7
 744 155 744 155 219 155 c 1,8,9
 219 128 219 128 219 46 c 0,10,11
 219 38 219 38 214 33 c 0,12,13
 209 27 209 27 201 27 c 0,14,15
 194 27 194 27 187 33 c 0,16,17
 126 94 126 94 5 216 c 0,18,19
 0 221 0 221 0 229 c 256,20,21
 0 237 0 237 5 242 c 0,22,23
 66 303 66 303 188 425 c 0,24,25
 193 430 193 430 201 430 c 256,26,27
 209 430 209 430 214 424 c 0,28,29
 219 419 219 419 219 411 c 0,30,31
 219 375 219 375 219 302 c 1,32,33
 416 302 416 302 1006 302 c 0,34,35
 1013 302 1013 302 1019 296 c 0,36,37
 1024 291 1024 291 1024 283 c 1,38,39
 1024 283 1024 283 1024 283 c 1,0,1
1024 594 m 1,40,41
 1024 586 1024 586 1019 581 c 0,42,43
 958 520 958 520 836 398 c 0,44,45
 831 393 831 393 823 393 c 256,46,47
 815 393 815 393 810 399 c 0,48,49
 805 404 805 404 805 411 c 0,50,51
 805 448 805 448 805 521 c 1,52,53
 608 521 608 521 18 521 c 0,54,55
 11 521 11 521 5 527 c 0,56,57
 0 532 0 532 0 539 c 0,58,59
 0 576 0 576 0 649 c 0,60,61
 0 657 0 657 5 662 c 0,62,63
 11 667 11 667 18 667 c 0,64,65
 280 667 280 667 805 667 c 1,66,67
 805 695 805 695 805 777 c 0,68,69
 805 785 805 785 810 790 c 256,70,71
 815 795 815 795 823 795 c 0,72,73
 830 795 830 795 837 790 c 0,74,75
 898 729 898 729 1019 607 c 0,76,77
 1024 602 1024 602 1024 594 c 1,78,79
 1024 594 1024 594 1024 594 c 1,40,41
EndSplineSet
Validated: 5
EndChar

StartChar: unie69b
Encoding: 59035 59035 63
Width: 1024
Flags: W
LayerCount: 2
Fore
SplineSet
385 205 m 1,0,1
 449 205 449 205 640 205 c 1,2,3
 640 139 640 139 640 -57 c 1,4,5
 576 -57 576 -57 384 -57 c 1,6,7
 384 8 384 8 385 205 c 1,0,1
385 577 m 1,8,9
 449 577 449 577 640 577 c 1,10,11
 640 513 640 513 640 320 c 1,12,13
 576 320 576 320 384 320 c 1,14,15
 384 384 384 384 385 577 c 1,8,9
385 950 m 1,16,17
 449 950 449 950 640 950 c 1,18,19
 640 884 640 884 640 687 c 1,20,21
 576 687 576 687 384 687 c 1,22,23
 384 753 384 753 385 950 c 1,16,17
EndSplineSet
Validated: 1
EndChar

StartChar: unie6a0
Encoding: 59040 59040 64
Width: 1024
Flags: W
LayerCount: 2
Fore
SplineSet
512 887 m 256,0,1
 421 887 421 887 341 852 c 0,2,3
 261 818 261 818 201 758 c 0,4,5
 142 699 142 699 108 619 c 0,6,7
 73 539 73 539 73 448 c 256,8,9
 73 357 73 357 108 277 c 0,10,11
 142 197 142 197 201 137 c 0,12,13
 261 78 261 78 341 44 c 0,14,15
 421 9 421 9 512 9 c 256,16,17
 603 9 603 9 683 44 c 0,18,19
 763 78 763 78 822 137 c 0,20,21
 882 197 882 197 916 277 c 0,22,23
 951 357 951 357 951 448 c 256,24,25
 951 539 951 539 916 619 c 0,26,27
 882 699 882 699 822 758 c 0,28,29
 763 818 763 818 683 852 c 0,30,31
 603 887 603 887 512 887 c 256,0,1
747 292 m 1,32,33
 727 272 727 272 668 213 c 1,34,35
 629 252 629 252 512 369 c 1,36,37
 473 330 473 330 356 213 c 1,38,39
 336 233 336 233 277 292 c 1,40,41
 316 331 316 331 433 448 c 1,42,43
 394 487 394 487 277 603 c 1,44,45
 297 623 297 623 356 682 c 1,46,47
 395 643 395 643 512 527 c 1,48,49
 551 566 551 566 668 682 c 1,50,51
 688 662 688 662 747 603 c 1,52,53
 708 564 708 564 591 448 c 1,54,55
 630 409 630 409 747 292 c 1,32,33
EndSplineSet
Validated: 9
EndChar

StartChar: unie6a1
Encoding: 59041 59041 65
Width: 1024
Flags: W
LayerCount: 2
Fore
SplineSet
949 154 m 1,0,1
 854 325 854 325 569 840 c 1,2,3
 569 840 569 840 554 862 c 0,4,5
 539 885 539 885 511 885 c 0,6,7
 481 885 481 885 468 863 c 0,8,9
 454 841 454 841 454 841 c 1,10,11
 327 612 327 612 72 154 c 0,12,13
 64 142 64 142 64 129 c 0,14,15
 64 118 64 118 70 106 c 0,16,17
 82 81 82 81 111 81 c 0,18,19
 378 81 378 81 913 81 c 0,20,21
 940 81 940 81 953 102 c 0,22,23
 958 111 958 111 958 122 c 0,24,25
 958 137 958 137 949 154 c 1,26,27
 949 154 949 154 949 154 c 1,0,1
455 668 m 1,28,29
 483 668 483 668 567 668 c 1,30,31
 567 593 567 593 567 367 c 1,32,33
 539 367 539 367 455 367 c 1,34,35
 455 442 455 442 455 668 c 1,36,37
 455 668 455 668 455 668 c 1,28,29
568 152 m 1,38,39
 540 152 540 152 456 152 c 1,40,41
 456 180 456 180 456 265 c 1,42,43
 484 265 484 265 568 265 c 1,44,45
 568 237 568 237 568 152 c 1,38,39
EndSplineSet
Validated: 5
EndChar

StartChar: unie6a2
Encoding: 59042 59042 66
Width: 1024
Flags: W
LayerCount: 2
Fore
SplineSet
512 887 m 256,0,1
 421 887 421 887 341 852 c 0,2,3
 261 818 261 818 201 758 c 0,4,5
 142 699 142 699 108 619 c 0,6,7
 73 539 73 539 73 448 c 256,8,9
 73 357 73 357 108 277 c 0,10,11
 142 197 142 197 201 137 c 0,12,13
 261 78 261 78 341 44 c 0,14,15
 421 9 421 9 512 9 c 256,16,17
 603 9 603 9 683 44 c 0,18,19
 763 78 763 78 822 137 c 0,20,21
 882 197 882 197 916 277 c 0,22,23
 951 357 951 357 951 448 c 256,24,25
 951 539 951 539 916 619 c 0,26,27
 882 699 882 699 822 758 c 0,28,29
 763 818 763 818 683 852 c 0,30,31
 603 887 603 887 512 887 c 256,0,1
449 762 m 1,32,33
 481 762 481 762 575 762 c 1,34,35
 575 730 575 730 575 636 c 1,36,37
 543 636 543 636 449 636 c 1,38,39
 449 668 449 668 449 762 c 1,32,33
637 138 m 1,40,41
 574 138 574 138 387 138 c 1,42,43
 387 154 387 154 387 201 c 1,44,45
 403 201 403 201 449 201 c 1,46,47
 449 263 449 263 449 448 c 1,48,49
 434 448 434 448 387 448 c 1,50,51
 387 464 387 464 387 511 c 1,52,53
 434 511 434 511 575 511 c 1,54,55
 575 433 575 433 575 201 c 1,56,57
 590 201 590 201 637 201 c 1,58,59
 637 185 637 185 637 138 c 1,40,41
EndSplineSet
Validated: 9
EndChar

StartChar: unie6a3
Encoding: 59043 59043 67
Width: 1024
Flags: W
LayerCount: 2
Fore
SplineSet
512 887 m 256,0,1
 421 887 421 887 341 852 c 0,2,3
 261 818 261 818 201 758 c 0,4,5
 142 699 142 699 108 619 c 0,6,7
 73 539 73 539 73 448 c 256,8,9
 73 357 73 357 108 277 c 0,10,11
 142 197 142 197 201 137 c 0,12,13
 261 78 261 78 341 44 c 0,14,15
 421 9 421 9 512 9 c 256,16,17
 603 9 603 9 683 44 c 0,18,19
 763 78 763 78 822 137 c 0,20,21
 882 197 882 197 916 277 c 0,22,23
 951 357 951 357 951 448 c 256,24,25
 951 539 951 539 916 619 c 0,26,27
 882 699 882 699 822 758 c 0,28,29
 763 818 763 818 683 852 c 0,30,31
 603 887 603 887 512 887 c 256,0,1
514 169 m 256,32,33
 487 169 487 169 468 189 c 0,34,35
 449 208 449 208 449 235 c 256,36,37
 449 262 449 262 468 282 c 0,38,39
 487 301 487 301 514 301 c 256,40,41
 541 301 541 301 560 282 c 0,42,43
 580 262 580 262 580 235 c 256,44,45
 580 208 580 208 560 189 c 0,46,47
 541 169 541 169 514 169 c 256,32,33
647 461 m 0,48,49
 626 445 626 445 609 433 c 256,50,51
 592 421 592 421 580 412 c 0,52,53
 564 401 564 401 562 386 c 0,54,55
 561 370 561 370 561 355 c 1,56,57
 526 355 526 355 456 355 c 1,58,59
 456 355 456 355 455 385 c 0,60,61
 455 414 455 414 469 431 c 256,62,63
 483 448 483 448 502 462 c 0,64,65
 522 477 522 477 536 488 c 256,66,67
 550 499 550 499 565 512 c 0,68,69
 580 524 580 524 580 554 c 0,70,71
 580 582 580 582 564 597 c 0,72,73
 548 611 548 611 517 611 c 0,74,75
 487 611 487 611 471 590 c 0,76,77
 455 568 455 568 455 536 c 1,78,79
 419 536 419 536 347 536 c 1,80,81
 347 536 347 536 349 561 c 256,82,83
 351 586 351 586 366 616 c 0,84,85
 382 647 382 647 417 672 c 0,86,87
 451 698 451 698 517 698 c 0,88,89
 649 698 649 698 670 627 c 0,90,91
 692 556 692 556 692 556 c 257,92,93
 692 556 692 556 687 522 c 0,94,95
 683 488 683 488 647 461 c 0,48,49
EndSplineSet
Validated: 9
EndChar

StartChar: unie700
Encoding: 59136 59136 68
Width: 1024
Flags: W
LayerCount: 2
Fore
SplineSet
292 960 m 1,0,1
 402 960 402 960 732 960 c 1,2,3
 732 704 732 704 731 -64 c 1,4,5
 621 -64 621 -64 291 -64 c 1,6,7
 291 192 291 192 292 960 c 1,0,1
EndSplineSet
Validated: 1
EndChar

StartChar: unie701
Encoding: 59137 59137 69
Width: 1024
Flags: W
LayerCount: 2
Fore
SplineSet
512 887 m 256,0,1
 421 887 421 887 341 852 c 0,2,3
 261 818 261 818 201 758 c 0,4,5
 142 699 142 699 108 619 c 0,6,7
 73 539 73 539 73 448 c 256,8,9
 73 357 73 357 108 277 c 0,10,11
 142 197 142 197 201 137 c 0,12,13
 261 78 261 78 341 44 c 0,14,15
 421 9 421 9 512 9 c 256,16,17
 603 9 603 9 683 44 c 0,18,19
 763 78 763 78 822 137 c 0,20,21
 882 197 882 197 916 277 c 0,22,23
 951 357 951 357 951 448 c 256,24,25
 951 539 951 539 916 619 c 0,26,27
 882 699 882 699 822 758 c 0,28,29
 763 818 763 818 683 852 c 0,30,31
 603 887 603 887 512 887 c 256,0,1
465 225 m 1,32,33
 399 291 399 291 201 489 c 1,34,35
 221 509 221 509 280 568 c 1,36,37
 326 522 326 522 465 383 c 1,38,39
 535 452 535 452 743 661 c 1,40,41
 763 641 763 641 822 582 c 1,42,43
 733 493 733 493 465 225 c 1,32,33
EndSplineSet
Validated: 9
EndChar

StartChar: unie702
Encoding: 59138 59138 70
Width: 1024
Flags: W
LayerCount: 2
Fore
SplineSet
713 550 m 0,0,1
 704 559 704 559 678 585 c 0,2,3
 673 590 673 590 666 590 c 0,4,5
 660 590 660 590 655 585 c 0,6,7
 586 516 586 516 448 378 c 1,8,9
 423 403 423 403 349 477 c 0,10,11
 344 482 344 482 338 482 c 0,12,13
 331 482 331 482 326 477 c 0,14,15
 315 465 315 465 292 442 c 0,16,17
 287 438 287 438 287 431 c 256,18,19
 287 424 287 424 292 419 c 0,20,21
 340 371 340 371 436 274 c 0,22,23
 441 269 441 269 448 269 c 0,24,25
 454 269 454 269 459 274 c 0,26,27
 544 358 544 358 713 527 c 0,28,29
 717 532 717 532 717 539 c 256,30,31
 717 546 717 546 713 550 c 0,0,1
512 896 m 256,32,33
 419 896 419 896 338 861 c 0,34,35
 256 826 256 826 195 765 c 256,36,37
 134 704 134 704 99 622 c 0,38,39
 64 541 64 541 64 448 c 256,40,41
 64 355 64 355 99 274 c 0,42,43
 134 192 134 192 195 131 c 256,44,45
 256 70 256 70 338 35 c 0,46,47
 419 0 419 0 512 0 c 256,48,49
 605 0 605 0 686 35 c 0,50,51
 768 70 768 70 829 131 c 256,52,53
 890 192 890 192 925 274 c 0,54,55
 960 355 960 355 960 448 c 256,56,57
 960 541 960 541 925 622 c 0,58,59
 890 704 890 704 829 765 c 256,60,61
 768 826 768 826 686 861 c 0,62,63
 605 896 605 896 512 896 c 256,32,33
512 103 m 256,64,65
 441 103 441 103 378 130 c 0,66,67
 315 158 315 158 268 204 c 0,68,69
 222 251 222 251 194 314 c 0,70,71
 167 377 167 377 167 448 c 256,72,73
 167 519 167 519 194 582 c 0,74,75
 222 645 222 645 268 691 c 0,76,77
 315 738 315 738 378 766 c 0,78,79
 441 793 441 793 512 793 c 256,80,81
 583 793 583 793 646 766 c 0,82,83
 709 738 709 738 755 691 c 0,84,85
 802 645 802 645 830 582 c 0,86,87
 857 519 857 519 857 448 c 256,88,89
 857 377 857 377 830 314 c 0,90,91
 802 251 802 251 755 204 c 0,92,93
 709 158 709 158 646 130 c 0,94,95
 583 103 583 103 512 103 c 256,64,65
EndSplineSet
Validated: 9
EndChar

StartChar: unie703
Encoding: 59139 59139 71
Width: 1024
Flags: W
LayerCount: 2
Fore
SplineSet
512 887 m 256,0,1
 421 887 421 887 341 852 c 0,2,3
 261 818 261 818 201 758 c 0,4,5
 142 699 142 699 108 619 c 0,6,7
 73 539 73 539 73 448 c 256,8,9
 73 357 73 357 108 277 c 0,10,11
 142 197 142 197 201 137 c 0,12,13
 261 78 261 78 341 44 c 0,14,15
 421 9 421 9 512 9 c 256,16,17
 603 9 603 9 683 44 c 0,18,19
 763 78 763 78 822 137 c 0,20,21
 882 197 882 197 916 277 c 0,22,23
 951 357 951 357 951 448 c 256,24,25
 951 539 951 539 916 619 c 0,26,27
 882 699 882 699 822 758 c 0,28,29
 763 818 763 818 683 852 c 0,30,31
 603 887 603 887 512 887 c 256,0,1
645 183 m 1,32,33
 578 183 578 183 379 183 c 1,34,35
 396 253 396 253 448 464 c 1,36,37
 417 481 417 481 398 512 c 256,38,39
 379 543 379 543 379 581 c 0,40,41
 379 636 379 636 418 675 c 0,42,43
 457 713 457 713 512 713 c 256,44,45
 567 713 567 713 606 675 c 0,46,47
 645 636 645 636 645 581 c 0,48,49
 645 543 645 543 626 512 c 0,50,51
 606 481 606 481 575 464 c 1,52,53
 598 370 598 370 645 183 c 1,54,55
 645 183 645 183 645 183 c 1,32,33
EndSplineSet
Validated: 5
EndChar

StartChar: unie704
Encoding: 59140 59140 72
Width: 1024
Flags: W
LayerCount: 2
Fore
SplineSet
1003 142 m 0,0,1
 888 241 888 241 542 537 c 1,2,3
 558 567 558 567 567 601 c 256,4,5
 576 635 576 635 576 672 c 0,6,7
 576 732 576 732 554 785 c 0,8,9
 531 837 531 837 492 876 c 256,10,11
 453 915 453 915 401 938 c 0,12,13
 348 960 348 960 288 960 c 0,14,15
 266 960 266 960 245 957 c 256,16,17
 224 954 224 954 204 948 c 1,18,19
 260 892 260 892 371 781 c 0,20,21
 389 763 389 763 389 736 c 256,22,23
 389 709 389 709 371 691 c 0,24,25
 337 657 337 657 269 589 c 0,26,27
 251 571 251 571 224 571 c 256,28,29
 197 571 197 571 179 589 c 0,30,31
 123 645 123 645 12 756 c 1,32,33
 6 736 6 736 3 715 c 256,34,35
 0 694 0 694 0 672 c 0,36,37
 0 612 0 612 22 559 c 0,38,39
 45 507 45 507 84 468 c 256,40,41
 123 429 123 429 175 406 c 0,42,43
 228 384 228 384 288 384 c 0,44,45
 325 384 325 384 359 393 c 256,46,47
 393 402 393 402 423 418 c 1,48,49
 555 264 555 264 818 -43 c 0,50,51
 835 -63 835 -63 861 -64 c 0,52,53
 862 -64 862 -64 863 -64 c 0,54,55
 887 -64 887 -64 905 -46 c 0,56,57
 939 -12 939 -12 1006 55 c 0,58,59
 1024 73 1024 73 1024 97 c 0,60,61
 1024 98 1024 98 1024 99 c 0,62,63
 1023 125 1023 125 1003 142 c 0,0,1
EndSplineSet
Validated: 9
EndChar

StartChar: unie705
Encoding: 59141 59141 73
Width: 1024
Flags: W
LayerCount: 2
Fore
SplineSet
512 887 m 256,0,1
 421 887 421 887 341 852 c 0,2,3
 261 818 261 818 201 758 c 0,4,5
 142 699 142 699 108 619 c 0,6,7
 73 539 73 539 73 448 c 256,8,9
 73 357 73 357 108 277 c 0,10,11
 142 197 142 197 201 137 c 0,12,13
 261 78 261 78 341 44 c 0,14,15
 421 9 421 9 512 9 c 256,16,17
 603 9 603 9 683 44 c 0,18,19
 763 78 763 78 822 137 c 0,20,21
 882 197 882 197 916 277 c 0,22,23
 951 357 951 357 951 448 c 256,24,25
 951 539 951 539 916 619 c 0,26,27
 882 699 882 699 822 758 c 0,28,29
 763 818 763 818 683 852 c 0,30,31
 603 887 603 887 512 887 c 256,0,1
732 245 m 1,32,33
 714 245 714 245 658 245 c 1,34,35
 658 318 658 318 658 538 c 1,36,37
 621 466 621 466 512 251 c 1,38,39
 512 251 512 251 512 251 c 257,40,41
 512 251 512 251 511 251 c 0,42,43
 475 323 475 323 366 538 c 1,44,45
 366 465 366 465 366 245 c 1,46,47
 348 245 348 245 292 245 c 1,48,49
 292 355 292 355 292 684 c 1,50,51
 310 684 310 684 366 684 c 1,52,53
 403 613 403 613 512 400 c 1,54,55
 548 471 548 471 658 684 c 1,56,57
 676 684 676 684 732 684 c 1,58,59
 732 574 732 574 732 245 c 1,60,61
 732 245 732 245 732 245 c 1,32,33
EndSplineSet
Validated: 5
EndChar

StartChar: unie706
Encoding: 59142 59142 74
Width: 1024
Flags: W
LayerCount: 2
Fore
SplineSet
384 832 m 256,0,1
 384 885 384 885 422 922 c 0,2,3
 459 960 459 960 512 960 c 256,4,5
 565 960 565 960 602 922 c 0,6,7
 640 885 640 885 640 832 c 256,8,9
 640 779 640 779 602 742 c 0,10,11
 565 704 565 704 512 704 c 256,12,13
 459 704 459 704 422 742 c 0,14,15
 384 779 384 779 384 832 c 256,0,1
656 720 m 256,16,17
 656 773 656 773 694 810 c 0,18,19
 731 848 731 848 784 848 c 256,20,21
 837 848 837 848 874 810 c 0,22,23
 912 773 912 773 912 720 c 256,24,25
 912 667 912 667 874 630 c 0,26,27
 837 592 837 592 784 592 c 256,28,29
 731 592 731 592 694 630 c 0,30,31
 656 667 656 667 656 720 c 256,16,17
832 448 m 256,32,33
 832 475 832 475 850 494 c 0,34,35
 869 512 869 512 896 512 c 256,36,37
 923 512 923 512 942 494 c 0,38,39
 960 475 960 475 960 448 c 256,40,41
 960 421 960 421 942 402 c 0,42,43
 923 384 923 384 896 384 c 256,44,45
 869 384 869 384 850 402 c 0,46,47
 832 421 832 421 832 448 c 256,32,33
720 176 m 0,48,49
 720 203 720 203 738 222 c 0,50,51
 757 240 757 240 784 240 c 0,52,53
 810 240 810 240 829 222 c 0,54,55
 848 203 848 203 848 176 c 0,56,57
 848 150 848 150 829 131 c 256,58,59
 810 112 810 112 784 112 c 0,60,61
 757 112 757 112 738 131 c 0,62,63
 720 150 720 150 720 176 c 0,48,49
448 64 m 257,64,65
 448 64 448 64 448 64 c 257,66,67
 448 64 448 64 448 64 c 1,68,69
 448 91 448 91 466 110 c 0,70,71
 485 128 485 128 512 128 c 256,72,73
 539 128 539 128 558 110 c 0,74,75
 576 91 576 91 576 64 c 1,76,77
 576 64 576 64 576 64 c 257,78,79
 576 64 576 64 576 64 c 1,80,81
 576 37 576 37 558 18 c 0,82,83
 539 0 539 0 512 0 c 256,84,85
 485 0 485 0 466 18 c 0,86,87
 448 37 448 37 448 64 c 1,88,89
 448 64 448 64 448 64 c 257,64,65
176 176 m 257,90,91
 176 176 176 176 176 176 c 257,92,93
 176 176 176 176 176 176 c 1,94,95
 176 203 176 203 195 222 c 0,96,97
 214 240 214 240 240 240 c 0,98,99
 267 240 267 240 286 222 c 0,100,101
 304 203 304 203 304 176 c 1,102,103
 304 176 304 176 304 176 c 257,104,105
 304 176 304 176 304 176 c 1,106,107
 304 150 304 150 286 131 c 0,108,109
 267 112 267 112 240 112 c 0,110,111
 214 112 214 112 195 131 c 256,112,113
 176 150 176 150 176 176 c 1,114,115
 176 176 176 176 176 176 c 257,90,91
144 720 m 257,116,117
 144 720 144 720 144 720 c 257,118,119
 144 720 144 720 144 720 c 1,120,121
 144 759 144 759 173 787 c 0,122,123
 201 816 201 816 240 816 c 0,124,125
 280 816 280 816 308 787 c 0,126,127
 336 759 336 759 336 720 c 1,128,129
 336 720 336 720 336 720 c 257,130,131
 336 720 336 720 336 720 c 1,132,133
 336 680 336 680 308 652 c 256,134,135
 280 624 280 624 240 624 c 0,136,137
 201 624 201 624 173 652 c 0,138,139
 144 680 144 680 144 720 c 1,140,141
 144 720 144 720 144 720 c 257,116,117
56 448 m 256,142,143
 56 478 56 478 77 499 c 256,144,145
 98 520 98 520 128 520 c 256,146,147
 158 520 158 520 179 499 c 256,148,149
 200 478 200 478 200 448 c 256,150,151
 200 418 200 418 179 397 c 256,152,153
 158 376 158 376 128 376 c 256,154,155
 98 376 98 376 77 397 c 256,156,157
 56 418 56 418 56 448 c 256,142,143
EndSplineSet
Validated: 5
EndChar

StartChar: unie707
Encoding: 59143 59143 75
Width: 1024
Flags: W
LayerCount: 2
Fore
SplineSet
512 832 m 256,0,1
 419 832 419 832 338 797 c 0,2,3
 256 762 256 762 195 701 c 256,4,5
 134 640 134 640 99 558 c 0,6,7
 64 477 64 477 64 384 c 256,8,9
 64 291 64 291 99 210 c 0,10,11
 134 128 134 128 195 67 c 256,12,13
 256 6 256 6 338 -29 c 0,14,15
 419 -64 419 -64 512 -64 c 256,16,17
 605 -64 605 -64 686 -29 c 0,18,19
 768 6 768 6 829 67 c 256,20,21
 890 128 890 128 925 210 c 0,22,23
 960 291 960 291 960 384 c 256,24,25
 960 477 960 477 925 558 c 0,26,27
 890 640 890 640 829 701 c 256,28,29
 768 762 768 762 686 797 c 0,30,31
 605 832 605 832 512 832 c 256,0,1
512 24 m 256,32,33
 437 24 437 24 371 53 c 0,34,35
 306 81 306 81 257 129 c 0,36,37
 209 178 209 178 181 243 c 0,38,39
 152 309 152 309 152 384 c 256,40,41
 152 459 152 459 181 525 c 0,42,43
 209 590 209 590 257 638 c 0,44,45
 306 687 306 687 371 715 c 0,46,47
 437 744 437 744 512 744 c 256,48,49
 587 744 587 744 653 715 c 0,50,51
 718 687 718 687 766 638 c 0,52,53
 815 590 815 590 843 525 c 0,54,55
 872 459 872 459 872 384 c 256,56,57
 872 309 872 309 843 243 c 0,58,59
 815 178 815 178 766 129 c 0,60,61
 718 81 718 81 653 53 c 0,62,63
 587 24 587 24 512 24 c 256,32,33
935 673 m 1,64,65
 947 694 947 694 954 718 c 0,66,67
 960 742 960 742 960 768 c 0,68,69
 960 848 960 848 904 904 c 256,70,71
 848 960 848 960 768 960 c 0,72,73
 722 960 722 960 682 939 c 0,74,75
 642 919 642 919 616 885 c 1,76,77
 666 875 666 875 711 855 c 0,78,79
 757 836 757 836 797 809 c 0,80,81
 838 782 838 782 873 748 c 0,82,83
 907 713 907 713 935 673 c 1,84,85
 935 673 935 673 935 673 c 257,86,87
 935 673 935 673 935 673 c 257,88,89
 935 673 935 673 935 673 c 1,64,65
408 885 m 1,90,91
 382 919 382 919 342 939 c 0,92,93
 302 960 302 960 256 960 c 0,94,95
 176 960 176 960 120 904 c 256,96,97
 64 848 64 848 64 768 c 0,98,99
 64 742 64 742 70 718 c 0,100,101
 77 694 77 694 89 673 c 1,102,103
 117 713 117 713 151 748 c 0,104,105
 186 782 186 782 226 809 c 0,106,107
 267 836 267 836 313 855 c 0,108,109
 358 875 358 875 408 885 c 1,90,91
704 416 m 1,110,111
 704 400 704 400 704 352 c 1,112,113
 608 352 608 352 320 352 c 1,114,115
 320 368 320 368 320 416 c 1,116,117
 416 416 416 416 704 416 c 1,110,111
EndSplineSet
Validated: 5
EndChar

StartChar: unie708
Encoding: 59144 59144 76
Width: 1024
Flags: W
LayerCount: 2
Fore
SplineSet
512 960 m 256,0,1
 406 960 406 960 313 920 c 0,2,3
 219 880 219 880 149 810 c 0,4,5
 80 741 80 741 40 647 c 0,6,7
 0 554 0 554 0 448 c 256,8,9
 0 342 0 342 40 249 c 0,10,11
 80 155 80 155 149 85 c 0,12,13
 219 16 219 16 313 -24 c 0,14,15
 406 -64 406 -64 512 -64 c 256,16,17
 618 -64 618 -64 711 -24 c 0,18,19
 805 16 805 16 874 85 c 0,20,21
 944 155 944 155 984 249 c 0,22,23
 1024 342 1024 342 1024 448 c 256,24,25
 1024 554 1024 554 984 647 c 0,26,27
 944 741 944 741 874 810 c 0,28,29
 805 880 805 880 711 920 c 0,30,31
 618 960 618 960 512 960 c 256,0,1
512 32 m 256,32,33
 426 32 426 32 350 65 c 0,34,35
 274 97 274 97 217 153 c 0,36,37
 161 210 161 210 129 286 c 0,38,39
 96 362 96 362 96 448 c 256,40,41
 96 534 96 534 129 610 c 0,42,43
 161 686 161 686 217 742 c 0,44,45
 274 799 274 799 350 831 c 0,46,47
 426 864 426 864 512 864 c 256,48,49
 598 864 598 864 674 831 c 0,50,51
 750 799 750 799 806 742 c 0,52,53
 863 686 863 686 895 610 c 0,54,55
 928 534 928 534 928 448 c 256,56,57
 928 362 928 362 895 286 c 0,58,59
 863 210 863 210 806 153 c 0,60,61
 750 97 750 97 674 65 c 0,62,63
 598 32 598 32 512 32 c 256,32,33
320 640 m 1,64,65
 416 640 416 640 704 640 c 1,66,67
 704 544 704 544 704 256 c 1,68,69
 608 256 608 256 320 256 c 1,70,71
 320 352 320 352 320 640 c 1,64,65
EndSplineSet
Validated: 9
EndChar

StartChar: unie709
Encoding: 59145 59145 77
Width: 1024
Flags: W
LayerCount: 2
Fore
SplineSet
864 832 m 1,0,1
 744 712 744 712 384 352 c 1,2,3
 328 408 328 408 160 576 c 1,4,5
 120 536 120 536 0 416 c 1,6,7
 96 320 96 320 384 32 c 1,8,9
 544 192 544 192 1024 672 c 1,10,11
 984 712 984 712 864 832 c 1,0,1
EndSplineSet
Validated: 9
EndChar

StartChar: unie70a
Encoding: 59146 59146 78
Width: 1024
Flags: W
LayerCount: 2
Fore
SplineSet
397 42 m 1,0,1
 298 140 298 140 0 434 c 1,2,3
 49 482 49 482 197 628 c 1,4,5
 247 579 247 579 397 431 c 1,6,7
 504 537 504 537 827 854 c 1,8,9
 876 805 876 805 1024 659 c 1,10,11
 867 505 867 505 397 42 c 1,12,13
 397 42 397 42 397 42 c 1,0,1
108 434 m 1,14,15
 180 363 180 363 397 149 c 1,16,17
 527 276 527 276 916 659 c 1,18,19
 894 681 894 681 827 747 c 1,20,21
 720 641 720 641 397 324 c 1,22,23
 347 373 347 373 197 522 c 1,24,25
 175 500 175 500 108 434 c 1,26,27
 108 434 108 434 108 434 c 1,14,15
EndSplineSet
Validated: 5
EndChar

StartChar: unie70b
Encoding: 59147 59147 79
Width: 1024
Flags: W
LayerCount: 2
Fore
SplineSet
659 211 m 1,0,1
 606 264 606 264 448 421 c 1,2,3
 448 492 448 492 448 704 c 1,4,5
 480 704 480 704 576 704 c 1,6,7
 576 647 576 647 576 475 c 1,8,9
 619 432 619 432 749 301 c 1,10,11
 726 278 726 278 659 211 c 1,0,1
512 960 m 256,12,13
 406 960 406 960 313 920 c 0,14,15
 219 880 219 880 149 810 c 0,16,17
 80 741 80 741 40 647 c 0,18,19
 0 554 0 554 0 448 c 256,20,21
 0 342 0 342 40 249 c 0,22,23
 80 155 80 155 149 85 c 0,24,25
 219 16 219 16 313 -24 c 0,26,27
 406 -64 406 -64 512 -64 c 256,28,29
 618 -64 618 -64 711 -24 c 0,30,31
 805 16 805 16 874 85 c 0,32,33
 944 155 944 155 984 249 c 0,34,35
 1024 342 1024 342 1024 448 c 256,36,37
 1024 554 1024 554 984 647 c 0,38,39
 944 741 944 741 874 810 c 0,40,41
 805 880 805 880 711 920 c 0,42,43
 618 960 618 960 512 960 c 256,12,13
512 64 m 256,44,45
 432 64 432 64 362 94 c 0,46,47
 293 124 293 124 240 176 c 0,48,49
 188 229 188 229 158 298 c 0,50,51
 128 368 128 368 128 448 c 256,52,53
 128 528 128 528 158 598 c 0,54,55
 188 667 188 667 240 719 c 0,56,57
 293 772 293 772 362 802 c 0,58,59
 432 832 432 832 512 832 c 256,60,61
 592 832 592 832 662 802 c 0,62,63
 731 772 731 772 783 719 c 0,64,65
 836 667 836 667 866 598 c 0,66,67
 896 528 896 528 896 448 c 256,68,69
 896 368 896 368 866 298 c 0,70,71
 836 229 836 229 783 176 c 0,72,73
 731 124 731 124 662 94 c 0,74,75
 592 64 592 64 512 64 c 256,44,45
EndSplineSet
Validated: 9
EndChar

StartChar: unie70c
Encoding: 59148 59148 80
Width: 1024
Flags: W
LayerCount: 2
Fore
SplineSet
512 960 m 256,0,1
 406 960 406 960 313 920 c 0,2,3
 219 880 219 880 149 810 c 0,4,5
 80 741 80 741 40 647 c 0,6,7
 0 554 0 554 0 448 c 256,8,9
 0 342 0 342 40 249 c 0,10,11
 80 155 80 155 149 85 c 0,12,13
 219 16 219 16 313 -24 c 0,14,15
 406 -64 406 -64 512 -64 c 256,16,17
 618 -64 618 -64 711 -24 c 0,18,19
 805 16 805 16 874 85 c 0,20,21
 944 155 944 155 984 249 c 0,22,23
 1024 342 1024 342 1024 448 c 256,24,25
 1024 554 1024 554 984 647 c 0,26,27
 944 741 944 741 874 810 c 0,28,29
 805 880 805 880 711 920 c 0,30,31
 618 960 618 960 512 960 c 256,0,1
659 211 m 1,32,33
 606 264 606 264 448 421 c 1,34,35
 448 492 448 492 448 704 c 1,36,37
 480 704 480 704 576 704 c 1,38,39
 576 647 576 647 576 475 c 1,40,41
 619 432 619 432 749 301 c 1,42,43
 726 278 726 278 659 211 c 1,44,45
 659 211 659 211 659 211 c 1,32,33
EndSplineSet
Validated: 5
EndChar

StartChar: unie70d
Encoding: 59149 59149 81
Width: 878
Flags: W
LayerCount: 2
Fore
SplineSet
439 887 m 0,0,1
 558 887 558 887 659 828 c 256,2,3
 760 769 760 769 819 668 c 256,4,5
 878 567 878 567 878 448 c 256,6,7
 878 329 878 329 819 228 c 256,8,9
 760 127 760 127 659 68 c 256,10,11
 558 9 558 9 439 9 c 0,12,13
 319 9 319 9 219 68 c 0,14,15
 118 127 118 127 59 228 c 256,16,17
 0 329 0 329 0 448 c 256,18,19
 0 567 0 567 59 668 c 256,20,21
 118 769 118 769 219 828 c 0,22,23
 319 887 319 887 439 887 c 0,0,1
512 174 m 1,24,25
 512 201 512 201 512 283 c 0,26,27
 512 291 512 291 507 296 c 0,28,29
 502 302 502 302 494 302 c 0,30,31
 458 302 458 302 385 302 c 0,32,33
 377 302 377 302 371 296 c 0,34,35
 366 290 366 290 366 283 c 0,36,37
 366 247 366 247 366 174 c 0,38,39
 366 167 366 167 371 161 c 0,40,41
 377 155 377 155 385 155 c 0,42,43
 421 155 421 155 494 155 c 0,44,45
 502 155 502 155 507 161 c 0,46,47
 512 166 512 166 512 174 c 1,48,49
 512 174 512 174 512 174 c 1,24,25
511 371 m 1,50,51
 513 460 513 460 521 726 c 0,52,53
 521 733 521 733 515 736 c 0,54,55
 510 741 510 741 502 741 c 0,56,57
 460 741 460 741 376 741 c 0,58,59
 368 741 368 741 362 736 c 0,60,61
 357 733 357 733 357 726 c 0,62,63
 360 608 360 608 366 371 c 0,64,65
 366 365 366 365 372 361 c 256,66,67
 378 357 378 357 386 357 c 0,68,69
 421 357 421 357 491 357 c 0,70,71
 499 357 499 357 505 361 c 0,72,73
 510 365 510 365 511 371 c 1,74,75
 511 371 511 371 511 371 c 1,50,51
EndSplineSet
Validated: 5
EndChar

StartChar: unie70f
Encoding: 59151 59151 82
Width: 1152
Flags: W
LayerCount: 2
Fore
SplineSet
992 160 m 1,0,1
 1005 171 1005 171 1044 205 c 1,2,3
 1044 318 1044 318 1044 659 c 1,4,5
 1031 670 1031 670 992 704 c 1,6,7
 972 704 972 704 913 704 c 1,8,9
 949 741 949 741 1056 851 c 1,10,11
 1037 871 1037 871 980 930 c 1,12,13
 925 873 925 873 759 704 c 1,14,15
 672 704 672 704 413 704 c 1,16,17
 358 760 358 760 195 927 c 1,18,19
 176 907 176 907 118 848 c 1,20,21
 153 812 153 812 259 704 c 1,22,23
 231 704 231 704 148 704 c 1,24,25
 135 693 135 693 95 659 c 1,26,27
 95 546 95 546 95 205 c 1,28,29
 108 194 108 194 148 160 c 1,30,31
 168 160 168 160 228 160 c 1,32,33
 201 132 201 132 120 49 c 1,34,35
 140 30 140 30 198 -29 c 1,36,37
 244 18 244 18 382 160 c 1,38,39
 484 160 484 160 790 160 c 1,40,41
 837 112 837 112 978 -32 c 1,42,43
 997 -12 997 -12 1056 46 c 1,44,45
 1028 75 1028 75 944 160 c 1,46,47
 956 160 956 160 992 160 c 1,48,49
 992 160 992 160 992 160 c 1,0,1
464 402 m 1,50,51
 460 398 460 398 449 387 c 1,52,53
 427 387 427 387 359 387 c 1,54,55
 359 410 359 410 359 477 c 1,56,57
 385 477 385 477 464 477 c 1,58,59
 464 458 464 458 464 402 c 1,50,51
675 436 m 1,60,61
 675 442 675 442 675 460 c 1,62,63
 679 464 679 464 692 477 c 1,64,65
 714 477 714 477 781 477 c 1,66,67
 781 454 781 454 781 387 c 1,68,69
 766 387 766 387 723 387 c 1,70,71
 711 399 711 399 675 436 c 1,72,73
 675 436 675 436 675 436 c 1,60,61
781 328 m 1,74,75
 781 331 781 331 781 341 c 1,76,77
 820 341 820 341 939 341 c 1,78,79
 939 318 939 318 939 251 c 1,80,81
 918 251 918 251 856 251 c 1,82,83
 837 270 837 270 781 328 c 1,84,85
 781 328 781 328 781 328 c 1,74,75
833 387 m 1,86,87
 833 410 833 410 833 477 c 1,88,89
 860 477 860 477 939 477 c 1,90,91
 939 454 939 454 939 387 c 1,92,93
 913 387 913 387 833 387 c 1,86,87
939 613 m 1,94,95
 939 590 939 590 939 523 c 1,96,97
 900 523 900 523 781 523 c 1,98,99
 781 534 781 534 781 568 c 1,100,101
 792 579 792 579 825 613 c 1,102,103
 854 613 854 613 939 613 c 1,104,105
 939 613 939 613 939 613 c 1,94,95
670 613 m 1,106,107
 658 601 658 601 622 564 c 1,108,109
 622 576 622 576 622 613 c 1,110,111
 634 613 634 613 670 613 c 1,106,107
570 613 m 1,112,113
 570 596 570 596 570 544 c 1,114,115
 553 561 553 561 502 613 c 1,116,117
 519 613 519 613 570 613 c 1,112,113
411 548 m 1,118,119
 411 542 411 542 411 523 c 1,120,121
 385 523 385 523 306 523 c 1,122,123
 306 546 306 546 306 613 c 1,124,125
 316 613 316 613 347 613 c 1,126,127
 363 597 363 597 411 548 c 1,118,119
200 613 m 1,128,129
 213 613 213 613 253 613 c 1,130,131
 253 590 253 590 253 523 c 1,132,133
 240 523 240 523 200 523 c 1,134,135
 200 546 200 546 200 613 c 1,128,129
200 477 m 1,136,137
 226 477 226 477 306 477 c 1,138,139
 306 454 306 454 306 387 c 1,140,141
 279 387 279 387 200 387 c 1,142,143
 200 410 200 410 200 477 c 1,136,137
200 341 m 1,144,145
 213 341 213 341 253 341 c 1,146,147
 253 318 253 318 253 251 c 1,148,149
 240 251 240 251 200 251 c 1,150,151
 200 274 200 274 200 341 c 1,144,145
306 251 m 1,152,153
 306 274 306 274 306 341 c 1,154,155
 331 341 331 341 405 341 c 1,156,157
 383 318 383 318 316 251 c 0,158,159
 314 251 314 251 306 251 c 1,152,153
471 251 m 1,160,161
 493 274 493 274 559 341 c 1,162,163
 572 341 572 341 613 341 c 1,164,165
 635 318 635 318 702 251 c 1,166,167
 644 251 644 251 471 251 c 1,168,169
 471 251 471 251 471 251 c 1,160,161
EndSplineSet
Validated: 5
EndChar
